<svg width="90" height="90" viewBox="0 0 90 90" fill="none" xmlns="http://www.w3.org/2000/svg">
<g clip-path="url(#clip0_4017_6342)">
<path d="M76.6475 43.3096H13.3564V85.9597H76.6475V43.3096Z" fill="#F4F4F4"/>
<path d="M32.7084 25.3838V39.5869H9.64453L19.3055 25.3838H32.7084Z" fill="#F26E62"/>
<path d="M44.4195 26.8682H40.0615V32.3722H44.4195V26.8682Z" fill="#F26E62"/>
<path d="M50.148 26.8682H45.79V32.3722H50.148V26.8682Z" fill="#F26E62"/>
<path d="M80.3531 39.5869H57.3187L57.3047 25.3838H70.6922L80.3531 39.5869Z" fill="#F26E62"/>
<path d="M11.3932 90.0002H78.6133C79.5766 90.0002 80.3557 89.2198 80.3557 88.2579V87.7052C80.3557 86.7434 79.5752 85.9629 78.6133 85.9629H11.3918C10.4299 85.9629 9.64941 86.7434 9.64941 87.7052V88.2593C9.64941 89.2198 10.4299 90.0002 11.3932 90.0002Z" fill="#FEDC7D"/>
<path d="M80.3536 39.5869H9.64453V43.2994H80.3536V39.5869Z" fill="#E15F5A"/>
<path d="M31.1402 62.792H21.7676V70.7218H31.1402V62.792Z" fill="#A0C3D8"/>
<path d="M31.1402 71.4434H21.7676V79.3816H31.1402V71.4434Z" fill="#A0C3D8"/>
<path d="M41.6286 62.792H32.2461V70.7218H41.6286V62.792Z" fill="#A0C3D8"/>
<path d="M41.6286 71.4434H32.2461V79.3816H41.6286V71.4434Z" fill="#A0C3D8"/>
<path d="M20.7715 61.7344V80.4375H42.6134V61.7344H20.7715ZM31.1468 79.3758H21.7559V71.4375H31.1468V79.3758ZM31.1468 70.7203H21.7559V62.7961H31.1468V70.7203ZM41.6276 79.3758H32.2521V71.4375H41.6276V79.3758ZM41.6276 70.7203H32.2521V62.7961H41.6276V70.7203Z" fill="#DADDE1"/>
<path d="M28.7752 46.7422H20.5078V54.6706H28.7752V46.7422Z" fill="#92B6CF"/>
<path d="M42.3494 46.7422H34.082V54.6706H42.3494V46.7422Z" fill="#92B6CF"/>
<path d="M55.9246 46.7422H47.6572V54.6706H55.9246V46.7422Z" fill="#92B6CF"/>
<path d="M69.4988 46.7422H61.2314V54.6706H69.4988V46.7422Z" fill="#92B6CF"/>
<path d="M68.1961 85.9614H52.5811V70.3309C52.5811 66.0194 56.077 62.5234 60.3886 62.5234C64.7001 62.5234 68.1961 66.0194 68.1961 70.3309V85.9614Z" fill="#788D9A"/>
<path d="M57.3043 25.3844V21.5594L55.2371 18.9016L54.0277 17.3406L50.1043 12.2781L46.1949 7.24375L44.9996 5.71094L43.8184 7.24375L38.7137 13.8391L34.7762 18.9297L32.709 21.6156V39.5889H57.3184L57.3043 25.3844ZM51.1576 33.6953H38.8529V18.6189H51.1576V33.6953Z" fill="#EDEDED"/>
<path d="M44.9988 5.70898L43.8176 7.2418L38.7129 13.8371L43.8035 7.2418L44.9988 5.70898Z" fill="#EDEDED"/>
<path d="M44.4195 19.7812H40.0615V25.2853H44.4195V19.7812Z" fill="#EDEDED"/>
<path d="M44.4195 26.8682H40.0615V32.3722H44.4195V26.8682Z" fill="#EDEDED"/>
<path d="M50.148 19.7812H45.79V25.2853H50.148V19.7812Z" fill="#EDEDED"/>
<path d="M50.148 26.8682H45.79V32.3722H50.148V26.8682Z" fill="#EDEDED"/>
<path d="M56.5875 39.5869L32.708 39.601V39.5869H56.5875Z" fill="#EDEDED"/>
<path d="M59.7234 20.0827V20.0967C59.7234 21.967 58.4438 23.0217 57.5578 21.8686L57.3187 21.5733L57.3047 21.5592L55.2375 18.9014L54.0281 17.3405L50.1047 12.278L46.1953 7.24359L45 5.71078L43.8188 7.24359L38.7141 13.8389L34.7766 18.9295L32.7094 21.6155L32.4703 21.9108C31.5844 23.0639 30.3047 21.9952 30.3047 20.1248C30.3047 19.4217 30.4875 18.7608 30.825 18.3389L34.7766 13.2483L39.4031 7.25766L44.9986 0L50.1033 6.56719L50.6095 7.22812L51.1158 7.88906L54.0267 11.6437L55.2361 13.1906L55.8548 13.9781L59.2017 18.2953C59.5406 18.7186 59.7234 19.3795 59.7234 20.0827Z" fill="#F26E62"/>
<path d="M38.8535 18.6191V33.6955H51.1582V18.6191H38.8535ZM44.4223 32.3737H40.0629V26.8752H44.4223V32.3737ZM44.4223 25.2862H40.0629V19.7877H44.4223V25.2862ZM50.1457 32.3737H45.7863V26.8752H50.1457V32.3737ZM50.1457 25.2862H45.7863V19.7877H50.1457V25.2862Z" fill="#DADDE1"/>
<path d="M44.4195 19.7822H40.0615V25.2863H44.4195V19.7822Z" fill="#DADDE1"/>
<path d="M44.4195 26.8682H40.0615V32.3722H44.4195V26.8682Z" fill="#DADDE1"/>
<path d="M50.149 19.7822H45.791V25.2863H50.149V19.7822Z" fill="#DADDE1"/>
<path d="M50.149 26.8682H45.791V32.3722H50.149V26.8682Z" fill="#DADDE1"/>
<path d="M44.4195 19.7822H40.0615V25.2863H44.4195V19.7822Z" fill="#92B6CF"/>
<path d="M50.149 19.7822H45.791V25.2863H50.149V19.7822Z" fill="#92B6CF"/>
<path d="M44.4195 26.8682H40.0615V32.3722H44.4195V26.8682Z" fill="#92B6CF"/>
<path d="M50.149 26.8682H45.791V32.3722H50.149V26.8682Z" fill="#92B6CF"/>
</g>
<defs>
<clipPath id="clip0_4017_6342">
<rect width="90" height="90" fill="white"/>
</clipPath>
</defs>
</svg>
