<svg width="90" height="90" viewBox="0 0 90 90" fill="none" xmlns="http://www.w3.org/2000/svg">
<path d="M66.0938 42.1875H23.9062V73.125H66.0938V42.1875Z" fill="#994635"/>
<path d="M19.6875 85.7812C22.7941 85.7812 25.3125 83.2629 25.3125 80.1562C25.3125 77.0496 22.7941 74.5312 19.6875 74.5312C16.5809 74.5312 14.0625 77.0496 14.0625 80.1562C14.0625 83.2629 16.5809 85.7812 19.6875 85.7812Z" fill="#994635"/>
<path d="M70.3125 85.7812C73.4191 85.7812 75.9375 83.2629 75.9375 80.1562C75.9375 77.0496 73.4191 74.5312 70.3125 74.5312C67.2059 74.5312 64.6875 77.0496 64.6875 80.1562C64.6875 83.2629 67.2059 85.7812 70.3125 85.7812Z" fill="#994635"/>
<path d="M23.9062 73.125H18.2812L17.9297 71.7188C16.5311 71.7188 15.1898 71.1632 14.2008 70.1742C13.2118 69.1852 12.6562 67.8439 12.6562 66.4453V42.1875H23.9062V73.125ZM72.0703 71.7188L71.7188 73.125H66.0938V42.1875H77.3438V66.4453C77.3438 67.8439 76.7882 69.1852 75.7992 70.1742C74.8102 71.1632 73.4689 71.7188 72.0703 71.7188Z" fill="#FAC850"/>
<path d="M27.4219 50.625H41.4844C42.4168 50.625 43.311 50.9954 43.9703 51.6547C44.6296 52.314 45 53.2082 45 54.1406V57.6562H23.9062V54.1406C23.9062 53.2082 24.2766 52.314 24.936 51.6547C25.5953 50.9954 26.4895 50.625 27.4219 50.625ZM27.4219 64.6875H41.4844C42.4168 64.6875 43.311 65.0579 43.9703 65.7172C44.6296 66.3765 45 67.2707 45 68.2031V71.7188H23.9062V68.2031C23.9062 67.2707 24.2766 66.3765 24.936 65.7172C25.5953 65.0579 26.4895 64.6875 27.4219 64.6875ZM48.5156 50.625H62.5781C63.5105 50.625 64.4047 50.9954 65.064 51.6547C65.7234 52.314 66.0938 53.2082 66.0938 54.1406V57.6562H45V54.1406C45 53.2082 45.3704 52.314 46.0297 51.6547C46.689 50.9954 47.5832 50.625 48.5156 50.625ZM48.5156 64.6875H62.5781C63.5105 64.6875 64.4047 65.0579 65.064 65.7172C65.7234 66.3765 66.0938 67.2707 66.0938 68.2031V71.7188H45V68.2031C45 67.2707 45.3704 66.3765 46.0297 65.7172C46.689 65.0579 47.5832 64.6875 48.5156 64.6875Z" fill="#FFF9F8"/>
<path d="M50.625 7.03125H45V16.875H50.625V7.03125Z" fill="#FA5D3F"/>
<path d="M54.8438 37.9688L53.4375 39.375H42.1875L40.7812 37.9688V17.2266C40.7813 16.7604 40.9664 16.3133 41.2961 15.9836C41.6258 15.6539 42.0729 15.4688 42.5391 15.4688H53.0859C53.5521 15.4688 53.9992 15.6539 54.3289 15.9836C54.6586 16.3133 54.8438 16.7604 54.8438 17.2266V37.9688Z" fill="#79D8EB"/>
<path d="M54.8438 22.5H40.7812V30.9375H54.8438V22.5Z" fill="#FAC850"/>
<path d="M74.5312 11.25L67.5 9.66797V17.5781H74.5312V11.25Z" fill="#FA5D3F"/>
<path d="M67.5 16.875L61.875 30.9375V37.9688L63.2812 39.375H77.3438L78.75 37.9688V30.9375L74.5312 16.875H67.5Z" fill="#79D8EB"/>
<path d="M63.6328 5.625H59.0625V8.4375H63.6328V5.625Z" fill="#79D8EB"/>
<path d="M63.8047 8.99409L60.6406 14.7949L63.1097 16.1417L66.2737 10.3408L63.8047 8.99409Z" fill="#FA5D3F"/>
<path d="M63.2812 9.84375V4.21875H71.7188L74.5312 11.25H67.5L63.2812 9.84375Z" fill="#FAC850"/>
<path d="M74.5312 29.5312H66.0938V32.3438H74.5312V29.5312Z" fill="#E4F7FB"/>
<path d="M21.0938 22.5H11.25V39.375H21.0938V22.5Z" fill="#E4F7FB"/>
<path d="M33.75 39.375H19.6875V23.9062L33.75 23.0273V39.375Z" fill="#79D8EB"/>
<path d="M26.7188 26.7188C30.602 26.7188 33.75 25.1448 33.75 23.2031C33.75 21.2615 30.602 19.6875 26.7188 19.6875C22.8355 19.6875 19.6875 21.2615 19.6875 23.2031C19.6875 25.1448 22.8355 26.7188 26.7188 26.7188Z" fill="#E4F7FB"/>
<path d="M18.2812 50.625H12.6562V57.6562H18.2812V50.625Z" fill="#FA5D3F"/>
<path d="M46.4062 71.7188V43.5938H81.2109C81.6771 43.5938 82.1242 43.4086 82.4539 43.0789C82.7836 42.7492 82.9687 42.3021 82.9688 41.8359V37.9688H7.03125V41.8359C7.03125 42.3021 7.21645 42.7492 7.5461 43.0789C7.87576 43.4086 8.32286 43.5938 8.78906 43.5938H43.5938V71.7188H4.21875V73.8281C4.21875 74.7605 4.58915 75.6547 5.24845 76.314C5.90776 76.9734 6.80197 77.3438 7.73438 77.3438H82.2656C83.198 77.3438 84.0922 76.9734 84.7515 76.314C85.4109 75.6547 85.7812 74.7605 85.7812 73.8281V71.7188H46.4062Z" fill="#FA5D3F"/>
</svg>
