<svg width="90" height="90" viewBox="0 0 90 90" fill="none" xmlns="http://www.w3.org/2000/svg">
<path d="M60 35.6254C60 39.6036 58.4196 43.4189 55.6066 46.232C52.7936 49.045 48.9782 50.6254 45 50.6254C41.0218 50.6254 37.2064 49.045 34.3934 46.232C31.5804 43.4189 30 39.6036 30 35.6254V24.1879C31.4282 23.895 32.7684 23.273 33.9141 22.3714C35.0598 21.4698 35.9795 20.3134 36.6 18.9941C37.922 20.0461 39.5605 20.6209 41.25 20.6254C50.625 20.6254 54.375 21.3379 58.7625 17.7754C60.4125 19.7816 60 20.2691 60 35.6254Z" fill="#F6CCAF"/>
<path d="M60 35.6246C60 38.0509 59.4114 40.441 58.2847 42.5898C57.158 44.7387 55.5269 46.5822 53.5312 47.9621C51.2757 48.7206 48.872 48.9316 46.5187 48.5776C44.1655 48.2237 41.9302 47.3149 39.9976 45.9263C38.065 44.5377 36.4905 42.7093 35.4041 40.592C34.3178 38.4747 33.7508 36.1293 33.75 33.7496V22.4996C34.9752 21.5922 35.9547 20.3935 36.6 19.0121C37.9245 20.0574 39.5627 20.6255 41.25 20.6246C50.4375 20.6246 53.9812 21.2809 58.2375 18.1496C58.4642 18.1095 58.6848 18.0402 58.8937 17.9434C60.375 19.8559 60 20.2496 60 35.6246Z" fill="#FFDEC7"/>
<path d="M58.8938 17.9433C58.6849 18.0401 58.4643 18.1095 58.2376 18.1495C58.8188 17.7933 58.7063 17.662 58.8938 17.9433ZM34.0688 22.2183C33.6938 22.5933 33.7501 22.4995 33.7501 22.312C33.8612 22.3008 33.9693 22.2691 34.0688 22.2183Z" fill="#F6CCAF"/>
<path d="M67.4998 30.9379C67.4998 32.1811 67.006 33.3734 66.1269 34.2525C65.2478 35.1316 64.0555 35.6254 62.8123 35.6254H59.9998V26.2504H62.8123C63.4286 26.248 64.0392 26.3675 64.6091 26.6022C65.1789 26.8369 65.6966 27.1821 66.1324 27.6179C66.5682 28.0536 66.9134 28.5714 67.148 29.1412C67.3827 29.711 67.5023 30.3217 67.4998 30.9379ZM29.9998 26.2504V35.6254H27.1873C26.263 35.6183 25.3612 35.339 24.5945 34.8226C23.8279 34.3062 23.2303 33.5754 22.8763 32.7215C22.5223 31.8676 22.4277 30.9283 22.6041 30.0209C22.7806 29.1135 23.2204 28.2782 23.8686 27.6192C25.6311 25.8567 27.6936 26.2504 29.9998 26.2504Z" fill="#374F68"/>
<path d="M61.875 45H46.875C46.3777 45 45.9008 44.8025 45.5492 44.4508C45.1975 44.0992 45 43.6223 45 43.125C45 42.6277 45.1975 42.1508 45.5492 41.7992C45.9008 41.4475 46.3777 41.25 46.875 41.25H61.875C62.3723 41.25 62.8492 41.0525 63.2008 40.7008C63.5525 40.3492 63.75 39.8723 63.75 39.375V34.6875C63.75 34.1902 63.9475 33.7133 64.2992 33.3617C64.6508 33.01 65.1277 32.8125 65.625 32.8125C66.1223 32.8125 66.5992 33.01 66.9508 33.3617C67.3025 33.7133 67.5 34.1902 67.5 34.6875V39.375C67.5 40.8668 66.9074 42.2976 65.8525 43.3525C64.7976 44.4074 63.3668 45 61.875 45Z" fill="#374F68"/>
<path d="M46.875 46.875H43.125C42.1304 46.875 41.1766 46.4799 40.4734 45.7766C39.7701 45.0734 39.375 44.1196 39.375 43.125C39.375 42.1304 39.7701 41.1766 40.4734 40.4734C41.1766 39.7701 42.1304 39.375 43.125 39.375H46.875C47.8696 39.375 48.8234 39.7701 49.5266 40.4734C50.2299 41.1766 50.625 42.1304 50.625 43.125C50.625 44.1196 50.2299 45.0734 49.5266 45.7766C48.8234 46.4799 47.8696 46.875 46.875 46.875Z" fill="#374F68"/>
<path d="M50.1188 45H46.8751C46.2171 44.9993 45.5709 44.8256 45.0014 44.4962C44.4319 44.1667 43.959 43.6933 43.6304 43.1233C43.3017 42.5534 43.1287 41.907 43.1289 41.249C43.1291 40.5911 43.3023 39.9448 43.6313 39.375H46.8751C47.533 39.3757 48.1792 39.5494 48.7487 39.8788C49.3183 40.2083 49.7911 40.6817 50.1198 41.2517C50.4484 41.8216 50.6214 42.468 50.6212 43.126C50.621 43.7839 50.4478 44.4302 50.1188 45Z" fill="#425B72"/>
<path d="M75 88.125H50.625C49.3125 81.525 47.625 73.125 46.875 69.375L48.75 65.625L50.625 67.5L57.3938 58.125C61.3842 58.7366 65.0707 60.6199 67.905 63.4948C70.7393 66.3696 72.5701 70.0825 73.125 74.0812C74.7563 86.25 74.325 83.1187 75 88.125Z" fill="#EDEBF2"/>
<path d="M57.3938 58.1254L50.625 67.5004L45 61.8754L50.625 57.0566L57.3938 58.1254Z" fill="#6FABE6"/>
<path d="M43.125 69.375L39.375 88.125H15L16.875 74.0812C17.4299 70.0825 19.2607 66.3696 22.095 63.4948C24.9293 60.6199 28.6158 58.7366 32.6062 58.125L39.375 67.5L41.25 65.625L43.125 69.375Z" fill="#DAD7E5"/>
<path d="M43.125 69.375L40.125 84.375H20.625C22.5 70.7438 22.1437 64.9875 28.125 59.325C29.5619 58.7367 31.0677 58.3335 32.6062 58.125L39.375 67.5L41.25 65.625L43.125 69.375Z" fill="#DAD7E5"/>
<path d="M43.1253 69.375L40.1253 84.375H29.1941C28.1197 84.3845 27.0558 84.163 26.0744 83.7256C25.0931 83.2881 24.2171 82.6449 23.506 81.8395C22.7948 81.0341 22.265 80.0853 21.9524 79.0573C21.6398 78.0294 21.5517 76.9462 21.6941 75.8813C22.4816 70.0688 22.5753 64.5187 28.0128 59.325C29.4856 58.7274 31.0298 58.324 32.6066 58.125L39.3753 67.5L41.2503 65.625L43.1253 69.375Z" fill="#EDEBF2"/>
<path d="M45.0002 61.8754L39.3752 67.5004L32.6064 58.1254C32.8502 58.1254 39.0189 57.2066 39.3752 57.1504L45.0002 61.8754Z" fill="#6FABE6"/>
<path d="M45.0002 61.8754C44.54 62.3374 43.9846 62.6934 43.3726 62.9186C42.7607 63.1438 42.1069 63.2327 41.4571 63.1791C40.8072 63.1255 40.1768 62.9308 39.61 62.6085C39.0432 62.2861 38.5535 61.844 38.1752 61.3129L35.5127 57.5629L39.3752 57.0566L45.0002 61.8754ZM45.0002 61.8754C45.4604 62.3374 46.0158 62.6934 46.6278 62.9186C47.2397 63.1438 47.8935 63.2327 48.5433 63.1791C49.1932 63.1255 49.8235 62.9308 50.3904 62.6085C50.9572 62.2861 51.4469 61.844 51.8252 61.3129L54.4877 57.5629L50.6252 57.0566L45.0002 61.8754Z" fill="#82BCF4"/>
<path d="M50.625 49.5371V57.0371L45 61.8746L39.375 57.0559V49.5559C42.9884 50.9938 47.0164 50.9871 50.625 49.5371Z" fill="#F6CCAF"/>
<path d="M50.625 49.5371V57.0371L46.875 60.2434C43.5563 57.4121 43.125 54.2809 43.125 50.4746C45.664 50.8074 48.246 50.4847 50.625 49.5371Z" fill="#FFDEC7"/>
<path d="M63.7504 1.875C63.7504 7.8375 64.4817 13.2937 58.7629 17.775C54.3754 21.3187 50.6254 20.625 41.2504 20.625C39.9694 20.6227 38.7103 20.2924 37.5931 19.6654C36.4759 19.0384 35.538 18.1358 34.8687 17.0435C34.1994 15.9511 33.821 14.7056 33.7697 13.4255C33.7184 12.1455 33.9958 10.8737 34.5754 9.73125C38.9254 1.03125 51.3567 10.1062 63.7504 1.875Z" fill="#A87E6B"/>
<path d="M63.7499 1.875C63.7499 7.8375 64.4812 13.2937 58.7624 17.775C57.4134 18.4863 55.8983 18.823 54.3749 18.75C45.2999 18.75 43.1249 19.2937 40.3499 17.1187C39.5035 16.4449 38.813 15.5959 38.3256 14.63C37.8382 13.6641 37.5656 12.6042 37.5264 11.523C37.4872 10.4418 37.6824 9.36495 38.0986 8.36631C38.5147 7.36767 39.142 6.47088 39.9374 5.7375C44.5687 4.89375 55.4624 7.66875 63.7499 1.875Z" fill="#BE927C"/>
<path d="M36.5997 18.994C35.8425 20.6021 34.6437 21.9619 33.1432 22.9146C31.6427 23.8674 29.9022 24.374 28.1247 24.3753C28.1247 13.9503 27.506 12.1878 29.9997 10.3128C30.6459 9.82638 31.4077 9.51695 32.2101 9.41501C33.0124 9.31308 33.8274 9.42217 34.5747 9.73151C33.7939 11.2725 33.5689 13.0357 33.9379 14.7233C34.3069 16.411 35.2471 17.9195 36.5997 18.994Z" fill="#A87E6B"/>
<path d="M35.9815 18.4503C35.4205 18.8657 34.7546 19.1162 34.0589 19.1737C33.3633 19.2312 32.6653 19.0934 32.0437 18.7758C31.4221 18.4582 30.9015 17.9733 30.5404 17.3759C30.1794 16.7784 29.9923 16.092 30.0002 15.394V10.3128C30.6464 9.82638 31.4083 9.51695 32.2106 9.41501C33.0129 9.31308 33.828 9.42217 34.5752 9.73151C33.8713 11.15 33.6284 12.753 33.8806 14.3163C34.1327 15.8797 34.8673 17.325 35.9815 18.4503Z" fill="#BE927C"/>
<path d="M48.75 65.625L46.875 69.375H43.125L41.25 65.625L45 61.875L48.75 65.625Z" fill="#DB5669"/>
<path d="M48.75 65.625L47.8125 67.5C45.1688 67.5 44.175 65.85 43.125 63.75L45 61.875L48.75 65.625Z" fill="#F26674"/>
<path d="M50.625 88.125H39.375L43.125 69.375H46.875L50.625 88.125Z" fill="#DB5669"/>
<path d="M50.6253 88.125C49.492 88.1191 48.3739 87.8628 47.3512 87.3742C46.3286 86.8856 45.4266 86.177 44.7098 85.299C43.9931 84.421 43.4794 83.3954 43.2055 82.2956C42.9315 81.1958 42.9042 80.0491 43.1253 78.9375L45.0003 69.375H46.8753L50.6253 88.125Z" fill="#F26674"/>
<path d="M30 26.25V31.875H29.0625C28.4463 31.8775 27.8356 31.7579 27.2658 31.5232C26.6959 31.2885 26.1782 30.9434 25.7424 30.5076C25.3067 30.0718 24.9615 29.5541 24.7268 28.9843C24.4921 28.4144 24.3726 27.8038 24.375 27.1875C25.8563 26.0625 27.0375 26.25 30 26.25ZM60 26.25V31.875H60.9375C61.5538 31.8775 62.1645 31.7579 62.7343 31.5232C63.3041 31.2885 63.8219 30.9434 64.2576 30.5076C64.6934 30.0718 65.0386 29.5541 65.2733 28.9843C65.508 28.4144 65.6275 27.8038 65.625 27.1875C64.1438 26.0625 62.9625 26.25 60 26.25Z" fill="#425B72"/>
<path d="M75 88.125H50.625L49.875 84.375H74.4937L75 88.125Z" fill="#DAD7E5"/>
</svg>
