<svg width="54" height="38" viewBox="0 0 54 38" fill="none" xmlns="http://www.w3.org/2000/svg">
<rect x="0.600098" width="53.2" height="38" rx="4" fill="#0060AF" fill-opacity="0.5"/>
<path fill-rule="evenodd" clip-rule="evenodd" d="M11.5419 22.6411C11.5419 22.1311 11.5478 20.7679 11.5344 20.6C11.5461 18.5715 9.98152 17.1406 8.99311 17.2522C8.30917 17.3081 7.73585 17.571 7.42821 18.3273C7.14283 19.0322 7.39798 19.9697 8.34637 20.1896C9.36035 20.4259 9.95264 20.6225 10.3812 20.8998C10.9063 21.2393 11.335 21.8879 11.3463 22.6419" fill="white" fill-opacity="0.5"/>
<path fill-rule="evenodd" clip-rule="evenodd" d="M11.1185 22.6418C11.1218 21.9881 10.7347 21.4101 10.2288 21.0994C9.7801 20.8249 9.17766 20.6446 8.20578 20.4121C7.90535 20.3397 7.5911 20.1787 7.49381 19.9736C7.23646 20.2181 7.18971 20.7676 7.23499 21.0889C7.28761 21.4605 7.74835 22.073 8.44208 22.097C8.86573 22.113 9.40136 22.0111 9.65822 21.9596C10.1013 21.8694 10.8024 22.131 10.914 22.641" fill="white" fill-opacity="0.5"/>
<path fill-rule="evenodd" clip-rule="evenodd" d="M11.9007 14.0908C10.7243 14.0908 9.70837 14.8221 9.71192 16.0874C9.71559 17.1515 10.6234 17.7211 10.9474 18.128C11.4369 18.7411 11.7018 19.4668 11.7292 20.5772C11.7508 21.461 11.7497 22.3337 11.7544 22.6429H12.014C12.0096 22.3194 11.9978 21.3929 12.0112 20.5499C12.0288 19.4391 12.3033 18.7411 12.793 18.128C13.1199 17.7211 14.0268 17.1515 14.0287 16.0874C14.0333 14.8221 13.0177 14.0908 11.8426 14.0908" fill="white" fill-opacity="0.5"/>
<path fill-rule="evenodd" clip-rule="evenodd" d="M12.1992 22.6411C12.1992 22.1311 12.1931 20.7679 12.2062 20.6C12.1947 18.5715 13.7582 17.1406 14.7475 17.2522C15.4314 17.3081 16.004 17.571 16.3126 18.3273C16.5976 19.0322 16.3411 19.9697 15.394 20.1896C14.3793 20.4259 13.7878 20.6225 13.3582 20.8998C12.8337 21.2393 12.435 21.8879 12.4228 22.6419" fill="white" fill-opacity="0.5"/>
<path fill-rule="evenodd" clip-rule="evenodd" d="M12.6226 22.6418C12.6189 21.9881 13.0059 21.4101 13.5103 21.0994C13.961 20.8249 14.564 20.6446 15.5351 20.4121C15.8361 20.3397 16.15 20.1787 16.2456 19.9736C16.5041 20.2181 16.5509 20.7676 16.5055 21.0889C16.4519 21.4605 15.9922 22.073 15.2997 22.097C14.8763 22.113 14.3378 22.0111 14.082 21.9596C13.6406 21.8694 12.9376 22.131 12.8255 22.641" fill="white" fill-opacity="0.5"/>
<path fill-rule="evenodd" clip-rule="evenodd" d="M12.9854 24.7525L12.835 23.7171L13.1983 23.6652C13.2866 23.6539 13.3943 23.6684 13.4374 23.7206C13.485 23.7752 13.4996 23.8203 13.5087 23.8918C13.5226 23.9804 13.4954 24.0826 13.3897 24.1336V24.1367C13.5076 24.1367 13.579 24.2166 13.5998 24.3516C13.6027 24.3802 13.6118 24.449 13.6027 24.5064C13.5787 24.6431 13.4923 24.6872 13.3462 24.7064L12.9854 24.7525ZM13.2192 24.5672C13.2623 24.5613 13.306 24.5591 13.3401 24.5386C13.3925 24.5064 13.3877 24.4376 13.3804 24.3864C13.3623 24.2742 13.3312 24.2314 13.2048 24.249L13.1252 24.2606L13.1756 24.5728L13.2192 24.5672ZM13.1432 24.0887C13.1913 24.0814 13.2564 24.0759 13.2836 24.0329C13.2979 24.0041 13.316 23.9813 13.304 23.9174C13.2892 23.8417 13.2627 23.7946 13.1605 23.8129L13.0654 23.8273L13.103 24.0926L13.1432 24.0887Z" fill="white" fill-opacity="0.5"/>
<path fill-rule="evenodd" clip-rule="evenodd" d="M14.559 24.1298C14.5618 24.1491 14.5652 24.1705 14.5664 24.1898C14.5957 24.3785 14.559 24.535 14.3339 24.578C14.0009 24.6383 13.9371 24.4435 13.8786 24.1705L13.8474 24.0228C13.8015 23.7617 13.7818 23.564 14.1064 23.503C14.2893 23.4716 14.4102 23.5402 14.4605 23.7119C14.4684 23.7375 14.4781 23.7628 14.4818 23.7886L14.2827 23.8274C14.2597 23.7628 14.2292 23.6475 14.1397 23.6572C13.9789 23.6756 14.032 23.864 14.0485 23.9429L14.1083 24.2264C14.1263 24.3121 14.1621 24.449 14.3012 24.4226C14.4141 24.4013 14.3648 24.2354 14.3548 24.1673" fill="white" fill-opacity="0.5"/>
<path fill-rule="evenodd" clip-rule="evenodd" d="M14.8788 24.4428L14.8101 23.3714L15.0774 23.2944L15.6383 24.2263L15.4277 24.2857L15.2948 24.0489L15.0609 24.1151L15.0911 24.3843L14.8788 24.4428ZM15.0413 23.942L15.2103 23.8959L14.9859 23.4624L15.0413 23.942Z" fill="white" fill-opacity="0.5"/>
<path fill-rule="evenodd" clip-rule="evenodd" d="M8.27166 23.6332C8.35537 23.3807 8.43026 23.1946 8.74977 23.2772C8.92073 23.3223 9.0267 23.3932 9.02169 23.5804C9.02083 23.6221 9.00627 23.6647 8.99672 23.7057L8.79787 23.654C8.82393 23.5506 8.84045 23.4686 8.70535 23.4293C8.54921 23.389 8.51115 23.5675 8.48961 23.6446L8.40872 23.9254C8.38302 24.0088 8.35219 24.1466 8.48961 24.1823C8.60317 24.211 8.67195 24.106 8.71306 23.9526L8.57405 23.9178L8.62214 23.7553L8.94924 23.8544L8.79395 24.3958L8.64343 24.3573L8.67733 24.2428H8.67305C8.60366 24.3365 8.51922 24.3463 8.44519 24.3328C8.11809 24.2495 8.15223 24.048 8.2303 23.7787" fill="white" fill-opacity="0.5"/>
<path fill-rule="evenodd" clip-rule="evenodd" d="M9.4892 24.0901L9.39069 24.5305L9.16895 24.4854L9.40525 23.457L9.78326 23.5374C10.0045 23.5825 10.0713 23.6753 10.04 23.8665C10.0221 23.9763 9.96474 24.0944 9.82462 24.0848L9.82315 24.0831C9.94161 24.1221 9.95164 24.1785 9.93096 24.2757C9.92203 24.3173 9.86047 24.5685 9.90294 24.6091L9.90441 24.64L9.67496 24.5835C9.66541 24.5139 9.69796 24.3887 9.71081 24.3192C9.72366 24.2578 9.74434 24.1713 9.67826 24.1389C9.62662 24.1128 9.60729 24.1141 9.54879 24.1015L9.4892 24.0901ZM9.52701 23.9308L9.6763 23.9688C9.76698 23.9812 9.8174 23.9369 9.83527 23.8336C9.85142 23.7388 9.83049 23.7019 9.74912 23.6836L9.58905 23.6529L9.52701 23.9308Z" fill="white" fill-opacity="0.5"/>
<path fill-rule="evenodd" clip-rule="evenodd" d="M10.9115 23.687L11.1307 23.711L11.0363 24.434C10.9904 24.6632 10.8964 24.7634 10.6289 24.7321C10.3567 24.6996 10.2921 24.5828 10.3085 24.3518L10.4037 23.6294L10.6247 23.6532L10.5299 24.3594C10.5197 24.4361 10.501 24.5497 10.6457 24.5636C10.774 24.5728 10.8032 24.4925 10.8177 24.3928" fill="white" fill-opacity="0.5"/>
<path fill-rule="evenodd" clip-rule="evenodd" d="M11.3726 24.7716L11.4386 23.7378L11.8598 23.755C12.0591 23.7643 12.1111 23.9175 12.105 24.0638C12.0991 24.1527 12.0697 24.2521 11.9875 24.3059C11.9201 24.3517 11.8333 24.3626 11.753 24.3589L11.6157 24.3517L11.5883 24.785L11.3726 24.7716ZM11.6218 24.194L11.7334 24.1999C11.8241 24.203 11.8842 24.1692 11.892 24.0437C11.8966 23.9233 11.8481 23.9028 11.7306 23.8979L11.6423 23.895L11.6218 24.194Z" fill="white" fill-opacity="0.5"/>
<path fill-rule="evenodd" clip-rule="evenodd" d="M41.0884 15.0899L39.4139 17.9551C38.7818 17.4712 38.0102 17.1152 37.0254 17.1152C34.6951 17.1152 33.7484 18.7526 33.7484 19.9061C33.7484 20.7624 34.3431 22.0255 36.4166 22.0255C37.2871 22.0255 38.5242 21.4548 38.8804 21.1951L37.2243 24.5192C36.4349 24.6677 36.1754 24.7597 35.5073 24.7792C31.7959 24.8836 30.2964 22.7344 30.2974 20.5385C30.2999 17.6353 33.0379 14.1046 37.5771 14.1046C37.8551 14.1046 38.1953 14.1954 38.4862 14.2959L38.7803 13.9414" fill="white" fill-opacity="0.5"/>
<path fill-rule="evenodd" clip-rule="evenodd" d="M47.998 14.0312L48.4721 24.4447H44.9432L44.9412 22.6588H42.5347L41.7429 24.4447H37.9155L41.9169 17.0086L41.0146 17.0031L42.7288 14.0312H47.998ZM44.9182 17.217L43.5578 20.2459H44.9593L44.9182 17.217Z" fill="white" fill-opacity="0.5"/>
<path fill-rule="evenodd" clip-rule="evenodd" d="M28.0694 14.0314C29.817 14.0407 30.8045 14.9349 30.8045 16.2266C30.8045 17.4175 29.763 18.4715 28.6197 19.0166C29.7968 19.4246 29.8986 20.4259 29.8986 21.1342C29.8986 22.8458 28.077 24.4448 25.7089 24.4448H20.5444L22.5589 17.1124L21.7315 17.1079L23.423 14.0314C23.423 14.0314 26.6483 14.0222 28.0694 14.0314V14.0314ZM26.3548 18.2535C26.7163 18.2535 27.3546 18.1672 27.5142 17.5077C27.6891 16.7917 27.09 16.7724 26.8027 16.7724L25.776 16.7683L25.4179 18.2535H26.3548ZM24.9032 20.0937L24.4305 21.8051H25.6396C26.1151 21.8051 26.7633 21.5825 26.9221 21.0255C27.079 20.4671 26.6259 20.0937 26.152 20.0937H24.9032Z" fill="white" fill-opacity="0.5"/>
<path fill-rule="evenodd" clip-rule="evenodd" d="M11.947 25.7245C10.1587 25.7245 8.32117 25.3093 6.48594 24.4882L6.44091 24.4673L6.41937 24.4241C5.5958 22.7853 5.16016 20.993 5.16016 19.2393C5.16016 17.4882 5.57794 15.7725 6.402 14.1359L6.42476 14.0924L6.47065 14.0707C8.16833 13.3126 9.9945 12.9287 11.9005 12.9287C13.6757 12.9287 15.5719 13.3561 17.3828 14.1671L17.4291 14.1866L17.4507 14.2309C18.2899 15.8998 18.7325 17.6918 18.7325 19.4165C18.7325 21.1343 18.3075 22.8516 17.4672 24.5196L17.4452 24.5633L17.3984 24.5836C15.7266 25.3296 13.8414 25.7245 11.947 25.7245M6.6558 24.2635C8.43853 25.0541 10.2167 25.4533 11.947 25.4533C13.7816 25.4533 15.606 25.0752 17.2303 24.3586C18.0371 22.7424 18.4461 21.0789 18.4461 19.4165C18.4461 17.7472 18.0192 16.0109 17.2118 14.391C15.4544 13.6122 13.6191 13.1992 11.9005 13.1992C10.0553 13.1992 8.28666 13.5681 6.64038 14.296C5.85009 15.8822 5.44785 17.5444 5.44785 19.2393C5.44785 20.9373 5.86576 22.6743 6.6558 24.2635Z" fill="white" fill-opacity="0.5"/>
</svg>
