<svg width="54" height="38" viewBox="0 0 54 38" fill="none" xmlns="http://www.w3.org/2000/svg">
<rect x="0.399902" width="53.2" height="38" rx="4" fill="white" fill-opacity="0.5"/>
<path fill-rule="evenodd" clip-rule="evenodd" d="M9.02752 22.5652L10.833 24.801H6.36298L9.02752 22.5652ZM8.45977 21.8746L4.96312 24.8078L4.96168 17.5938L8.45977 21.8746ZM16.873 14.6105C16.873 14.6105 16.1054 14.2471 15.2137 14.3002C14.1941 14.3602 13.3412 14.7512 12.8509 15.2671C12.5424 15.5912 12.2013 15.9866 12.03 16.416C11.7815 17.0372 11.7285 17.858 11.7285 17.858C11.7285 17.858 11.3719 17.5554 10.9252 16.6736C10.4057 15.6479 10.2637 15.0265 10.1933 14.3177C10.1306 13.6956 10.229 13.0806 10.229 13.0806H16.873V14.6105ZM16.873 16.6556V21.2043C16.873 21.2043 16.46 21.363 16.123 21.363C15.7861 21.363 15.2124 21.313 14.546 20.9467C13.8845 20.5833 13.5183 20.1436 13.2344 19.7452C12.9465 19.34 12.7088 18.7783 12.6381 18.3735C12.5814 18.0497 12.5202 17.242 12.8509 16.5855C13.0304 16.2292 13.5121 15.6186 14.4396 15.5838C15.1956 15.5548 15.6148 15.7536 15.999 15.9644C16.7302 16.3665 16.873 16.6556 16.873 16.6556V16.6556ZM9.63842 20.8849L10.8368 19.886C10.4549 19.3981 10.354 19.2143 9.92702 18.5844C9.48989 17.9397 9.12372 17.2304 8.8106 16.3982C8.47167 15.4968 8.38981 14.9907 8.42723 14.3177C8.47411 13.4614 8.6688 13.0806 8.6688 13.0806H4.95996L4.96168 15.0795C4.96168 15.0795 7.8007 18.6373 9.63842 20.8849V20.8849ZM13.0627 24.7977H16.873V22.0194C16.873 22.0194 15.9279 22.453 15.3136 22.488C14.9478 22.5093 14.5929 22.5234 14.0201 22.371C13.3834 22.2018 13.0217 22.0369 12.4316 21.5502C11.9576 21.1598 11.4156 20.5833 11.4156 20.5833L10.2102 21.5883C10.7695 22.2724 11.1825 22.7704 11.309 22.9044C11.8526 23.479 12.083 23.6901 12.4492 23.8948C12.8152 24.1 14.0382 24.0889 14.0382 24.0889L13.0627 24.7977Z" fill="#E94E0F" fill-opacity="0.5"/>
<path fill-rule="evenodd" clip-rule="evenodd" d="M45.6908 22.3262C45.6908 23.1312 45.7993 24.4544 44.8978 24.7765V24.8302H48.3217V24.7765C47.4208 24.4368 47.5289 23.1312 47.5289 22.3262V15.584C47.5289 14.7794 47.4208 13.4559 48.3217 13.1161V13.0625H44.8978V13.1161C45.8169 13.4559 45.6908 14.7615 45.6908 15.584V22.3262ZM33.1357 15.584L39.3171 23.3637C40.1098 24.3829 40.6688 24.9733 41.9482 25.4023V15.3694C41.9482 14.3681 41.9482 13.6525 42.8856 13.1161V13.0625H39.7135V13.1161C40.6688 13.6525 40.6504 14.3681 40.6504 15.3694V22.1475L34.055 13.885L33.8024 13.5273C33.6765 13.3843 33.6045 13.295 33.5324 13.0804V13.0625H30.9008V13.1161C31.8381 13.6525 31.8381 14.3681 31.8381 15.3694V22.5055C31.8381 23.5067 31.8381 24.2219 30.8832 24.7765V24.8302H34.073V24.7765C33.1178 24.2219 33.1357 23.5067 33.1357 22.5055V15.584ZM23.0598 17.8018V14.2966L24.267 14.1711C25.3484 14.0639 26.5015 14.7078 26.5015 15.942C26.5015 17.4084 24.8255 17.8018 23.6545 17.8018H23.0598ZM23.0598 23.3994V18.9819L24.321 18.9105C25.907 18.821 27.6009 19.5724 27.6009 21.3071C27.6009 23.006 26.1055 23.6855 24.6274 23.5426L23.0598 23.3994ZM21.2213 22.3084C21.2213 23.1312 21.3296 24.4368 20.4282 24.7765V24.8302H23.4019C24.7534 24.8302 26.1775 24.884 27.4387 24.2759C28.6462 23.7035 29.6015 22.523 29.6015 21.1459C29.6015 19.3935 28.2856 18.3203 26.6637 17.9803C27.6911 17.5334 28.4657 16.8538 28.4657 15.6556C28.4657 14.0639 27.0784 13.0625 24.6998 13.0625H20.4282V13.1161C21.3478 13.4559 21.2213 14.7615 21.2213 15.5661V22.3084Z" fill="#005B6A" fill-opacity="0.5"/>
</svg>
