<svg width="54" height="38" viewBox="0 0 54 38" fill="none" xmlns="http://www.w3.org/2000/svg">
<rect x="0.399902" width="53.2" height="38" rx="4" fill="#00529C" fill-opacity="0.5"/>
<rect x="0.399902" width="53.2" height="38" rx="4" fill="white" fill-opacity="0.5"/>
<path fill-rule="evenodd" clip-rule="evenodd" d="M8.97788 14.5522C9.48241 14.47 10.0001 14.4795 10.507 14.5301C10.977 14.6272 11.4511 14.7356 11.8824 14.953C12.7551 15.3694 13.4979 16.0443 13.9929 16.8753C14.4033 17.6431 14.6856 18.5045 14.6433 19.3843C14.6553 21.1904 13.511 22.9113 11.8901 23.6791C10.8394 24.1789 9.61704 24.2474 8.49419 23.9734C7.7347 23.7399 7.00202 23.3622 6.44864 22.782C5.92146 22.293 5.52355 21.6699 5.27099 20.9992C4.94158 20.1741 4.91179 19.2568 5.05178 18.3877C5.30792 17.0969 6.10553 15.9133 7.23433 15.2271C7.75972 14.881 8.36373 14.6755 8.97788 14.5522ZM8.30357 16.8699C7.92353 16.9086 7.50834 17.0421 7.29807 17.3852C7.06577 17.7138 7.04153 18.1249 7.0185 18.5154L7.01274 18.6111C7.008 18.7096 6.99921 18.808 6.99042 18.9063L6.99041 18.9064C6.97267 19.1049 6.95492 19.3035 6.97045 19.5034C6.98203 19.6384 6.9902 19.7739 6.99837 19.9093C7.01879 20.2478 7.03922 20.5865 7.11281 20.9187C7.20395 21.3375 7.58102 21.6621 7.9968 21.7384C8.77169 21.8781 9.56109 21.8658 10.3457 21.8536L10.5612 21.8504C10.8823 21.8325 11.2033 21.7997 11.5208 21.7491C11.9962 21.6872 12.4161 21.3 12.4941 20.8234C12.6306 20.2391 12.655 19.6362 12.6145 19.04C12.5382 18.6576 12.2678 18.3127 11.9003 18.1727C11.7347 18.0927 11.551 18.0932 11.3709 18.0936H11.3708C11.3391 18.0937 11.3074 18.0938 11.276 18.0934C10.9216 18.0939 10.5672 18.0937 10.2129 18.0935H10.2128C9.59276 18.0931 8.97277 18.0928 8.35301 18.0958C8.28176 18.0971 8.21527 18.0728 8.14936 18.0486C8.12491 18.0397 8.10053 18.0307 8.07602 18.0232C8.07424 17.8897 8.079 17.6902 8.2583 17.6866C8.72517 17.6761 9.19248 17.6792 9.65975 17.6823C10.2752 17.6864 10.8905 17.6905 11.5047 17.6634C11.438 17.3536 11.2492 17.0302 10.9239 16.9444C10.6303 16.8658 10.3265 16.8258 10.0245 16.7979C9.93834 16.7968 9.85206 16.7951 9.76572 16.7935C9.27649 16.7841 8.78508 16.7747 8.30357 16.8699ZM11.6298 19.4718C11.4732 19.4295 11.2855 19.4915 11.2307 19.6529C11.1963 19.8388 11.2514 20.0178 11.3062 20.1957C11.3292 20.2704 11.3521 20.3449 11.3683 20.4196C11.3862 20.43 11.413 20.4455 11.4398 20.461C11.4666 20.4765 11.4934 20.4919 11.5113 20.5024C11.5726 20.4666 11.6352 20.4345 11.7001 20.4065C11.7071 20.2493 11.745 20.0981 11.7829 19.9469C11.7997 19.8799 11.8165 19.8128 11.8306 19.7453C11.8014 19.6339 11.7281 19.532 11.6298 19.4718Z" fill="#01ACD7" fill-opacity="0.5"/>
<path fill-rule="evenodd" clip-rule="evenodd" d="M20.7635 16.0365C20.3042 15.8566 19.7943 15.8768 19.313 15.9364C18.2718 16.0972 17.358 16.8919 17.0494 17.8992C16.9095 18.2983 16.9124 18.7289 16.9494 19.1453C17.0739 20.2104 17.875 21.1456 18.8919 21.4714C19.6126 21.6894 20.4442 21.6966 21.1096 21.3064C21.1965 21.2583 21.2754 21.199 21.3543 21.1396C21.428 21.0841 21.5017 21.0287 21.5819 20.9824L21.5831 21.0377C21.593 21.4768 21.6042 21.9733 21.271 22.3048C21.0476 22.5776 20.7099 22.7211 20.3685 22.7736C19.6305 22.9088 18.8502 22.6568 18.3015 22.1517C18.1796 22.2759 18.0518 22.3946 17.924 22.5132C17.7173 22.7052 17.5107 22.8971 17.3288 23.1125C17.903 23.6558 18.6304 24.0477 19.419 24.152C20.1898 24.2491 21.019 24.202 21.7058 23.8059C22.2884 23.4824 22.7471 22.9302 22.927 22.2863C23.0386 21.9654 23.0371 21.6227 23.0356 21.2873L23.0354 21.2308C23.0348 19.4551 23.0348 17.6799 23.0354 15.9042C22.7563 15.9008 22.4771 15.9009 22.198 15.9011C21.9964 15.9012 21.7948 15.9013 21.5932 15.9001L21.5939 16.0464C21.5948 16.2049 21.5957 16.3634 21.5921 16.5219C21.3437 16.3188 21.0691 16.1395 20.7635 16.0365ZM18.9342 17.584C19.173 17.372 19.4899 17.291 19.7991 17.2451C20.4144 17.1516 21.1066 17.4333 21.4217 17.9843C21.5488 18.2076 21.5435 18.4599 21.5382 18.7099C21.5364 18.7974 21.5346 18.8846 21.5384 18.9702C21.5903 19.4956 21.181 19.959 20.7122 20.1377C20.1458 20.351 19.447 20.3652 18.9526 19.9715C18.2116 19.4157 18.1967 18.1475 18.9342 17.584ZM33.4192 15.9013C32.8033 15.8971 32.1611 16.0811 31.7174 16.5255C31.7134 16.4688 31.7097 16.4122 31.7061 16.3556L31.706 16.3553L31.706 16.3551L31.706 16.355L31.706 16.3548C31.6997 16.2572 31.6933 16.1598 31.6858 16.0627C31.2009 16.0567 30.716 16.0549 30.2311 16.0627C30.2318 17.5328 30.2317 19.0029 30.2316 20.4731C30.2316 21.5757 30.2315 22.6783 30.2317 23.7809C30.5725 23.8028 30.914 23.8009 31.2554 23.799H31.2555H31.2555H31.2555H31.2556C31.4143 23.7981 31.573 23.7972 31.7316 23.7987C31.7428 23.1176 31.7403 22.4361 31.7378 21.7545C31.737 21.5218 31.7361 21.289 31.7358 21.0562C32.8057 21.9063 34.5087 21.8127 35.4707 20.8376C36.5179 19.7874 36.5781 17.9158 35.5696 16.8198C35.0388 16.2098 34.224 15.8727 33.4192 15.9013ZM31.8061 18.1124C31.9628 17.6412 32.4417 17.3601 32.9069 17.2677C33.3864 17.1706 33.9225 17.2916 34.2931 17.618C34.9209 18.1886 34.9257 19.2853 34.3336 19.8828C33.7397 20.4576 32.6889 20.4469 32.0986 19.872C31.8472 19.6498 31.7156 19.302 31.7376 18.9696C31.7425 18.882 31.7402 18.7931 31.7378 18.7041V18.7041V18.7041V18.7041V18.704C31.7325 18.5026 31.7272 18.3008 31.8061 18.1124ZM25.8815 15.9745C26.728 15.8042 27.6542 15.9066 28.3911 16.3778C28.9516 16.7161 29.3781 17.2648 29.5687 17.8908C29.8303 18.7134 29.7129 19.6546 29.2233 20.3706C28.7366 21.092 27.9056 21.534 27.0479 21.6168C26.5195 21.6525 25.9733 21.6346 25.4735 21.4422C24.6455 21.1641 23.9509 20.4808 23.7067 19.6367C23.4446 18.8457 23.5661 17.9403 24.0153 17.2397C24.431 16.5845 25.128 16.1371 25.8815 15.9745ZM26.2359 17.2755C26.0251 17.3356 25.8279 17.4405 25.6552 17.5745C25.0571 18.0457 24.9112 18.9773 25.3371 19.6081C25.8237 20.4105 27.0794 20.569 27.7382 19.897C28.0605 19.601 28.2136 19.159 28.1707 18.7259C28.207 17.7657 27.142 16.9919 26.2359 17.2755ZM40.0634 15.937C39.1967 15.8232 38.2579 15.9441 37.5389 16.4737C37.1237 16.8037 36.7687 17.2576 36.6984 17.7973C36.9054 17.8327 37.1106 17.8775 37.3159 17.9223L37.316 17.9223C37.5834 17.9806 37.8508 18.0389 38.1221 18.0767C38.2394 17.6055 38.648 17.2308 39.1276 17.1534C39.4379 17.0998 39.7608 17.1158 40.0628 17.2076C40.3267 17.2933 40.5274 17.5823 40.4118 17.8575C40.1966 18.0537 39.9037 18.1131 39.6248 18.1696C39.5888 18.1769 39.5531 18.1841 39.5177 18.1916L39.3725 18.2122C38.6644 18.3123 37.9282 18.4163 37.3256 18.8254C36.5804 19.3466 36.5775 20.5731 37.2667 21.1426C37.8355 21.6317 38.6367 21.6876 39.3503 21.5929C39.8442 21.5006 40.3415 21.2868 40.6567 20.8799C40.6584 20.9803 40.6584 21.0807 40.6584 21.1811C40.6584 21.2816 40.6584 21.3821 40.6602 21.4827C40.769 21.4826 40.8777 21.4822 40.9865 21.4819H40.9866C41.3314 21.4808 41.6765 21.4797 42.0219 21.4851C42.0233 20.8122 42.0231 20.1395 42.0229 19.4669V19.4625V19.4624C42.0228 18.9594 42.0226 18.4564 42.0231 17.9534C42.0285 17.5441 41.879 17.1456 41.6538 16.8085C41.2881 16.295 40.6674 16.0359 40.0634 15.937ZM38.1882 20.0138C38.1095 19.8274 38.2614 19.6433 38.4133 19.5516C38.7197 19.3827 39.0645 19.3197 39.4087 19.2569C39.8234 19.1811 40.2372 19.1055 40.5816 18.8451C40.5783 18.9269 40.5809 19.0125 40.5836 19.0993C40.5925 19.3925 40.6019 19.6991 40.3868 19.9179C39.971 20.3325 39.3378 20.4087 38.7785 20.373C38.5462 20.3593 38.2406 20.2789 38.1882 20.0138ZM42.6215 16.0585C42.4614 16.0588 42.3012 16.0591 42.1411 16.0591C42.5637 16.9421 42.9956 17.8206 43.4276 18.6992C43.8328 19.5235 44.2381 20.3478 44.6358 21.176C44.4403 21.6057 44.2278 22.0275 44.0153 22.4494C43.7907 22.8953 43.5661 23.3412 43.3616 23.7963C43.5337 23.7956 43.7059 23.7969 43.8781 23.7983C44.261 23.8012 44.644 23.8041 45.0265 23.7844C46.2816 21.2123 47.5355 18.6402 48.7882 16.0669C48.2253 16.0526 47.663 16.0549 47.1007 16.0645C46.561 17.2493 46.0148 18.4317 45.4655 19.6117C45.3036 19.262 45.1399 18.9131 44.9762 18.5641C44.7089 17.9942 44.4416 17.4244 44.1819 16.8514C44.1403 16.7581 44.0944 16.6666 44.0486 16.5752C43.9645 16.4074 43.8805 16.2398 43.8227 16.0609C43.4223 16.0571 43.0219 16.0578 42.6215 16.0585Z" fill="#1D1D1D" fill-opacity="0.5"/>
</svg>
