<svg width="54" height="38" viewBox="0 0 54 38" fill="none" xmlns="http://www.w3.org/2000/svg">
<rect width="53.2" height="38" rx="4" fill="#00529C" fill-opacity="0.5"/>
<path fill-rule="evenodd" clip-rule="evenodd" d="M15.771 16.4893H18.3066C19.3334 16.4893 20.0988 16.9436 20.0988 17.8999C20.0988 18.6012 19.744 18.9917 19.1276 19.1986V19.2143C19.8623 19.3662 20.2414 19.7647 20.2414 20.4417C20.2414 21.7728 19.08 22.0515 18.0929 22.0515H15.771V16.4893ZM17.2399 18.6909H17.651C18.1328 18.6909 18.6307 18.5713 18.6307 18.1008C18.6307 17.5914 18.1566 17.5432 17.6664 17.5432H17.2399V18.6909ZM17.2399 20.9977H17.675C18.2116 20.9977 18.7723 20.9179 18.7723 20.352C18.7723 19.7468 18.196 19.6906 17.6904 19.6906H17.2399V20.9977Z" fill="white" fill-opacity="0.5"/>
<path fill-rule="evenodd" clip-rule="evenodd" d="M22.1687 16.4893H23.9696L26.0943 22.0515H24.4828L24.0725 20.8644H22.003L21.5684 22.0515H20.0757L22.1687 16.4893ZM23.0694 17.6421H23.0529L22.3424 19.8178H23.7246L23.0694 17.6421Z" fill="white" fill-opacity="0.5"/>
<path fill-rule="evenodd" clip-rule="evenodd" d="M26.2998 16.4951H28.1716L30.0357 20.2726H30.0511L30.0278 16.4951H31.371V22.0573H29.5463L27.6184 18.2563H27.6033L27.6504 22.0573H26.2998V16.4951Z" fill="white" fill-opacity="0.5"/>
<path fill-rule="evenodd" clip-rule="evenodd" d="M31.8687 16.4951H33.3375V18.7669H33.3534L35.0115 16.4951H36.7814L34.7432 19.0849L36.9393 22.0573H35.0668L33.3534 19.5314H33.3375V22.0573H31.8687V16.4951Z" fill="white" fill-opacity="0.5"/>
<path fill-rule="evenodd" clip-rule="evenodd" d="M38.7612 16.4893H41.2968C42.3234 16.4893 43.0898 16.9436 43.0898 17.8999C43.0898 18.6012 42.7349 18.9917 42.1185 19.1986V19.2143C42.853 19.3662 43.2321 19.7647 43.2321 20.4417C43.2321 21.7728 42.0709 22.0515 41.0841 22.0515H38.7612V16.4893ZM40.2308 18.6909H40.6411C41.1232 18.6909 41.6203 18.5713 41.6203 18.1008C41.6203 17.5914 41.147 17.5432 40.6575 17.5432H40.2308V18.6909ZM40.2308 20.9977H40.6654C41.202 20.9977 41.7631 20.9179 41.7631 20.352C41.7631 19.7468 41.1866 19.6906 40.681 19.6906H40.2308V20.9977Z" fill="white" fill-opacity="0.5"/>
<path fill-rule="evenodd" clip-rule="evenodd" d="M43.5576 16.4893H46.18C47.1592 16.4893 47.9573 16.9353 47.9573 17.8922C47.9573 18.6332 47.6097 19.1273 46.8991 19.2944V19.3102C47.3719 19.438 47.4041 19.86 47.6806 20.5375L48.2179 22.0515H46.6858L46.3697 21.048C46.0694 20.0917 45.8797 19.852 45.3347 19.852H45.0265V22.0515H43.5576V16.4893ZM45.0265 18.8025H45.4138C45.8877 18.8025 46.4882 18.7862 46.4882 18.1568C46.4882 17.6392 45.9742 17.5432 45.4138 17.5432H45.0265V18.8025Z" fill="white" fill-opacity="0.5"/>
<mask id="mask0_4027_4655" style="mask-type:luminance" maskUnits="userSpaceOnUse" x="3" y="13" width="48" height="12">
<path fill-rule="evenodd" clip-rule="evenodd" d="M3.03955 24.8609H50.0913V13.6846H3.03955V24.8609Z" fill="white"/>
</mask>
<g mask="url(#mask0_4027_4655)">
<path fill-rule="evenodd" clip-rule="evenodd" d="M48.6221 22.0573H50.091V16.4951H48.6221V22.0573Z" fill="white" fill-opacity="0.5"/>
<path fill-rule="evenodd" clip-rule="evenodd" d="M12.4181 13.6831H4.72938C3.79612 13.6831 3.03955 14.4653 3.03955 15.4305V15.4489V23.1126C3.03955 24.0683 3.78217 24.8452 4.70342 24.8595H12.414C13.3475 24.8595 14.1043 24.0772 14.1043 23.1126L14.1079 15.4305C14.1079 14.4653 13.3516 13.6831 12.4181 13.6831V13.6831ZM5.64374 23.9621L5.22423 23.9667C4.71649 23.9667 4.30491 23.5459 4.30491 23.0266L4.30251 22.9526V15.858L4.30515 15.4759C4.32414 14.9734 4.70255 14.5688 5.19827 14.5688H6.051C6.82367 14.5688 7.45041 15.2467 7.45041 16.0467C7.45041 16.442 7.29679 16.801 7.04797 17.062L4.87227 19.2894L6.91142 21.3843C7.17442 21.6576 7.33333 22.0171 7.33333 22.4108C7.33333 23.2677 6.57677 23.9621 5.64374 23.9621V23.9621ZM11.9119 23.9551L8.11008 23.9534C8.11008 23.9534 8.54978 22.9948 8.54978 22.4016C8.54978 21.6783 8.30986 21.0319 7.93458 20.6042L6.63421 19.2668L7.96151 17.8833C8.3565 17.5085 8.61902 16.8434 8.61902 16.086C8.61902 15.4861 8.45458 14.9547 8.18989 14.5688H9.11114C9.88405 14.5688 10.5108 15.2467 10.5108 16.0467C10.5108 16.442 10.3574 16.801 10.1086 17.062L7.97449 19.2661L12.4069 23.8263C12.2665 23.9156 12.0893 23.9551 11.9119 23.9551V23.9551ZM12.8413 22.5335L9.66481 19.2672L11.1777 17.7159C11.4859 17.3275 11.6811 16.7423 11.6811 16.0881C11.6811 15.4844 11.5143 14.9401 11.2472 14.5539L11.9244 14.5743C12.4321 14.5743 12.8437 14.9959 12.8437 15.5149L12.8413 22.5335Z" fill="white" fill-opacity="0.5"/>
</g>
</svg>
