<svg width="54" height="38" viewBox="0 0 54 38" fill="none" xmlns="http://www.w3.org/2000/svg">
<rect width="53.2" height="38" rx="4" fill="#108EE9" fill-opacity="0.5"/>
<path fill-rule="evenodd" clip-rule="evenodd" d="M11.483 12.9199H11.3057C9.83207 12.951 8.3806 13.5406 7.31039 14.5549C6.05576 15.7165 5.33578 17.4091 5.31982 19.1151V19.2738C5.34997 20.9443 6.04955 22.5979 7.26783 23.747C8.3469 24.7897 9.82586 25.3971 11.327 25.4219H11.5008C13.5295 25.3989 15.4819 24.263 16.537 22.5367C17.4397 21.1056 17.7172 19.3057 17.3164 17.6645C16.9804 16.2485 16.1327 14.9584 14.9588 14.0965C13.9613 13.3517 12.727 12.943 11.483 12.9199ZM8.72817 17.9996C9.30096 18.1672 9.91187 18.0652 10.4696 17.8853C10.7769 17.7839 11.0795 17.6681 11.382 17.5523C11.8712 17.365 12.3603 17.1778 12.8698 17.0518C13.5516 16.8922 14.3177 17.0208 14.8639 17.473C14.972 17.5767 14.9717 17.7267 14.9715 17.8689C14.9714 17.9041 14.9714 17.9388 14.973 17.9721C14.9669 18.4299 14.969 18.8878 14.9712 19.3456V19.3456V19.3457V19.3457V19.3457C14.9744 20.0204 14.9776 20.695 14.9543 21.369C14.8721 21.334 14.7902 21.2968 14.7083 21.2596L14.7082 21.2596C14.3707 21.1063 14.0314 20.9523 13.6518 20.9451C12.8603 20.9016 12.1287 21.1643 11.3957 21.4275C10.7992 21.6417 10.2018 21.8562 9.5705 21.9063C8.99772 21.9462 8.39922 21.8105 7.9346 21.4656C7.83942 21.3339 7.84417 21.169 7.84882 21.0076C7.85071 20.9419 7.85258 20.8768 7.84771 20.8148C7.85654 20.4051 7.85263 19.9947 7.84872 19.5842V19.5842V19.5842V19.5842V19.5842C7.84242 18.9223 7.83611 18.2604 7.88318 17.6015C7.98769 17.6481 8.08826 17.7035 8.18879 17.7589C8.36203 17.8543 8.53516 17.9497 8.72817 17.9996ZM20.7486 16.0337H20.7486C20.435 16.0356 20.1214 16.0376 19.808 16.0339C19.8075 17.0864 19.8075 18.1391 19.8075 19.1919C19.8075 20.2447 19.8075 21.2976 19.8071 22.3505C20.1564 22.351 20.5054 22.351 20.8545 22.351C21.2037 22.351 21.5529 22.351 21.9023 22.3514C22.4103 22.3523 22.9237 22.2547 23.3777 22.0198C24.5853 21.4275 25.2849 20.0035 25.0535 18.6833C24.862 17.3089 23.6614 16.1412 22.2667 16.0481C21.7609 16.0273 21.2547 16.0305 20.7486 16.0337ZM21.1277 20.4748C21.1303 19.4473 21.1329 18.4198 21.1238 17.3923C21.2592 17.3964 21.3954 17.3941 21.5318 17.3917H21.5318H21.5318H21.5318H21.5318C21.8301 17.3865 22.1289 17.3813 22.421 17.4446C23.1489 17.6113 23.7102 18.2896 23.7616 19.0308C23.8387 19.7685 23.4105 20.5302 22.7295 20.8316C22.3604 21.0061 21.9547 20.9976 21.5532 20.9892H21.5532H21.5532H21.5531H21.5531C21.4097 20.9862 21.2669 20.9832 21.1264 20.9886L21.1277 20.4748ZM27.3996 18.5884C27.4422 17.2185 28.6755 15.9878 30.0623 16.0348C31.4215 16.0206 32.615 17.2247 32.6691 18.568C32.6832 19.3397 32.681 20.1118 32.6788 20.8838V20.8845V20.8845V20.8845C32.6774 21.3727 32.6761 21.8608 32.6788 22.3487L32.6782 22.3487C32.2377 22.3496 31.7981 22.3505 31.3586 22.3487C31.3563 22.1228 31.3566 21.8968 31.3568 21.671V21.6705V21.6705V21.6704V21.6704C31.357 21.4445 31.3572 21.2186 31.355 20.993C30.8367 20.9956 30.3187 20.9952 29.8008 20.9947H29.8004H29.8003H29.8002H29.8002C29.4377 20.9944 29.0752 20.9941 28.7128 20.9948C28.7114 21.1632 28.7121 21.3317 28.7127 21.5002V21.5003V21.5003V21.5008C28.7138 21.7856 28.7149 22.0704 28.7065 22.3549C28.4139 22.3478 28.1217 22.3486 27.8296 22.3494H27.8296H27.8295H27.8295C27.6835 22.3498 27.5376 22.3502 27.3916 22.3496C27.3932 21.8937 27.392 21.4377 27.3908 20.9817V20.9816V20.9816V20.9816C27.3887 20.1836 27.3866 19.3856 27.3996 18.5884ZM29.0506 17.8454C28.6907 18.2342 28.7012 18.7588 28.7113 19.2616V19.2617V19.2618V19.2619C28.7138 19.3896 28.7163 19.5159 28.7128 19.6382C29.0649 19.6385 29.4172 19.6383 29.7695 19.6381H29.7695H29.7696H29.7696C30.2981 19.6378 30.8267 19.6375 31.355 19.6391C31.3517 19.5172 31.3546 19.3914 31.3574 19.2642C31.3685 18.7728 31.38 18.261 31.0411 17.8728C30.5685 17.2522 29.54 17.238 29.0506 17.8454ZM34.9886 18.6026C35.0276 17.3967 35.9701 16.2777 37.1662 16.0747C38.0564 15.9036 39.0105 16.2538 39.5904 16.9472C40.039 17.441 40.2678 18.1096 40.2678 18.7728C40.2696 19.5678 40.269 20.3624 40.2684 21.1571V21.1572C40.2681 21.5546 40.2678 21.9521 40.2678 22.3496C40.1182 22.3505 39.9686 22.35 39.8189 22.3495H39.8189C39.5302 22.3484 39.2413 22.3474 38.9529 22.3567C38.9433 21.6811 38.9449 21.0053 38.9464 20.3294C38.9476 19.8096 38.9487 19.2898 38.9449 18.7701C38.952 18.2878 38.694 17.8072 38.2719 17.5678C37.8339 17.3054 37.2407 17.3444 36.8391 17.66C36.4915 17.9198 36.2973 18.3525 36.3035 18.7834C36.3015 19.4628 36.3018 20.1419 36.3021 20.8211C36.3023 21.3305 36.3025 21.84 36.3017 22.3496C36.1408 22.349 35.9799 22.3493 35.8191 22.3496H35.8189C35.5374 22.3501 35.2559 22.3506 34.9744 22.3461C34.9838 21.7446 34.9821 21.1429 34.9803 20.5412C34.9785 19.8949 34.9766 19.2486 34.9886 18.6026ZM43.0005 17.2584C43.5103 16.4639 44.452 15.9514 45.4034 16.0419C46.4789 16.1084 47.4329 16.9277 47.7309 17.9518C47.8409 18.2975 47.8461 18.6587 47.8513 19.0196V19.0196C47.8543 19.226 47.8572 19.4323 47.8798 19.6355V22.3425C47.542 22.3518 47.2042 22.3507 46.8664 22.3495L46.8655 22.3495C46.7532 22.3491 46.6409 22.3487 46.5285 22.3487C46.528 22.2031 46.5282 22.0574 46.5285 21.9116C46.529 21.6039 46.5296 21.296 46.5223 20.9886C45.9875 20.9967 45.4523 20.9956 44.9171 20.9945H44.9167C44.5727 20.9938 44.2286 20.9931 43.8845 20.9948C43.8841 21.2205 43.8841 21.4461 43.8841 21.6719C43.8841 21.8976 43.8841 22.1235 43.8836 22.3496H42.5625C42.562 21.7675 42.562 21.1856 42.562 20.6039C42.562 20.0221 42.562 19.4405 42.5616 18.8588C42.5554 18.2984 42.6893 17.7292 43.0005 17.2584ZM44.2152 17.8542C43.8624 18.2416 43.8729 18.762 43.883 19.261C43.8856 19.389 43.8881 19.5156 43.8845 19.6382C44.4718 19.6388 45.0592 19.6386 45.6463 19.6384H45.6471L46.5277 19.6382C46.5237 19.5132 46.5265 19.3841 46.5293 19.2537V19.2535C46.5397 18.7643 46.5506 18.2559 46.2111 17.8702C45.7341 17.2486 44.7011 17.2406 44.2152 17.8542Z" fill="white" fill-opacity="0.5"/>
</svg>
