<svg width="54" height="38" viewBox="0 0 54 38" fill="none" xmlns="http://www.w3.org/2000/svg">
<rect x="0.799805" width="53.2" height="38" rx="4" fill="#E82529" fill-opacity="0.5"/>
<path fill-rule="evenodd" clip-rule="evenodd" d="M24.3606 6.10864C24.6281 6.05364 24.9234 6.07119 25.1578 6.22213C25.4698 6.41167 25.6394 6.7888 25.609 7.14839C25.554 7.79774 25.0318 8.38353 24.3871 8.49624C24.0888 8.55123 23.7631 8.48493 23.5272 8.28876C23.2939 8.10156 23.1637 7.79774 23.1832 7.49978C23.2347 6.8551 23.7085 6.23227 24.3606 6.10864ZM34.2289 6.46159C34.4595 6.44175 34.6922 6.44472 34.9248 6.4477C35.0672 6.44952 35.2095 6.45134 35.3513 6.44794C35.4747 6.44874 35.5981 6.44829 35.7215 6.44783C35.8968 6.44717 36.0722 6.44652 36.2475 6.4495C36.3275 6.44131 36.3977 6.52048 36.3774 6.59926C36.1503 8.24995 35.9214 9.90052 35.6926 11.551L35.6925 11.5518L35.6924 11.5525L35.6923 11.5532L35.6922 11.554L35.6921 11.5547L35.692 11.5554L35.6919 11.5559L35.6919 11.5562L35.6918 11.5569L35.6917 11.5575L35.6916 11.5582L35.6912 11.5614L35.6907 11.5645L35.6903 11.5677L35.6898 11.5715L35.6892 11.5756C35.5117 12.8561 35.3342 14.1365 35.1575 15.4169L35.1568 15.4209C35.1476 15.4806 35.1365 15.5524 35.0732 15.5795C35.0164 15.5944 34.9578 15.5938 34.8996 15.5932H34.8995C34.8799 15.593 34.8603 15.5927 34.8408 15.5931C34.5479 15.5918 34.255 15.5921 33.9621 15.5924C33.6693 15.5927 33.3765 15.5929 33.0838 15.5916C32.9879 15.606 32.9064 15.5109 32.9337 15.4184C33.1768 13.6523 33.4216 11.8864 33.6665 10.1205L33.6673 10.1147C33.8298 8.9424 33.9923 7.77008 34.1544 6.5977C34.161 6.54583 34.1743 6.48343 34.2289 6.46159ZM17.4633 6.7987C17.1747 6.79573 16.8861 6.79275 16.5991 6.81259C16.5055 6.84106 16.4439 6.9331 16.4381 7.02865C16.2734 8.26193 16.1094 9.49533 15.9454 10.7288L15.9454 10.7295L15.9453 10.7299L15.9452 10.7304L15.9452 10.7309L15.9451 10.7314L15.945 10.7319L15.945 10.7324L15.9448 10.7337C15.8168 11.6962 15.6888 12.6587 15.5605 13.6213C15.5231 13.8841 15.5524 14.1579 15.6538 14.404C15.9665 15.1669 16.7949 15.6392 17.6034 15.6357L17.974 15.6359C19.0864 15.6366 20.1991 15.6374 21.3115 15.6353C21.4129 15.6411 21.5034 15.5561 21.5081 15.4555L21.5703 15.0375L21.5703 15.0375L21.5703 15.0374L21.5703 15.0373L21.5703 15.0372L21.5703 15.0371L21.5704 15.0371L21.5704 15.037L21.5704 15.0369L21.5704 15.0368L21.5704 15.0367C21.6348 14.6048 21.6992 14.1726 21.7597 13.7402C21.7819 13.6369 21.6805 13.5491 21.581 13.5643C21.1588 13.5639 20.7366 13.5641 20.3143 13.5644C19.6457 13.5648 18.9771 13.5652 18.3085 13.5628C18.0761 13.5733 17.8752 13.3432 17.9205 13.1143C18.0639 12.1072 18.21 11.1004 18.356 10.0935L18.356 10.0935L18.356 10.0934L18.356 10.0933L18.356 10.0932L18.356 10.0931L18.356 10.0931L18.3561 10.093L18.3561 10.0929L18.3561 10.0928L18.3561 10.0927L18.3562 10.0922C18.5022 9.08527 18.6482 8.07836 18.7917 7.07117C18.8171 6.94285 18.7137 6.80908 18.5835 6.80323C18.462 6.79624 18.3402 6.79745 18.2184 6.79865C18.1432 6.79939 18.0679 6.80013 17.9926 6.79894C17.8164 6.80235 17.6399 6.80053 17.4633 6.7987ZM27.6986 8.93538C28.3862 8.85855 29.0793 8.85309 29.7707 8.84841C30.4135 8.85231 31.0893 8.99856 31.5909 9.42289C32.0495 9.80353 32.2991 10.3885 32.3498 10.9739C32.3859 11.2997 32.3418 11.6238 32.2979 11.9468L32.2978 11.9469C32.2853 12.0392 32.2727 12.1314 32.2621 12.2235C32.1456 13.1002 32.0146 13.9748 31.8836 14.8492L31.8836 14.8493L31.8836 14.8494L31.8836 14.8495L31.8836 14.8495L31.8836 14.8496L31.8836 14.8497L31.8836 14.8497L31.8835 14.8498L31.8835 14.8502L31.8042 15.3802C31.8003 15.4999 31.6876 15.59 31.5702 15.574C31.3377 15.5733 31.1052 15.5737 30.8727 15.574H30.8725C30.5177 15.5746 30.1629 15.5752 29.8082 15.5717C29.674 15.5725 29.5781 15.4286 29.6128 15.303L29.6692 14.9069L29.6692 14.9065C29.7671 14.2179 29.8651 13.529 29.9704 12.8413C29.9861 12.7323 30.0034 12.6235 30.0207 12.5146L30.0207 12.5144L30.0207 12.5142L30.0207 12.5141L30.0208 12.5139L30.0208 12.5138L30.0208 12.5136L30.0208 12.5135L30.0208 12.5133L30.0209 12.5131V12.5131V12.5131V12.5131V12.5131V12.5131V12.513V12.513V12.513V12.513C30.0754 12.1694 30.1301 11.8255 30.1342 11.477L30.1338 11.458C30.1298 11.2582 30.1252 11.0334 29.9782 10.8811C29.8121 10.7115 29.5703 10.6456 29.3413 10.6171C29.0449 10.5816 28.7458 10.6112 28.4529 10.6592L28.2121 12.3561C28.0614 13.4182 27.9107 14.4802 27.7603 15.5424C27.4135 15.246 26.9584 15.0549 26.4966 15.1056C26.1566 15.1169 25.85 15.2788 25.5677 15.4539L25.6953 14.576L25.6953 14.5759L25.6953 14.5757L25.6953 14.5756L25.6954 14.5755L25.6954 14.5753L25.6954 14.5752L25.6954 14.5751L25.6954 14.575L25.6955 14.5748C25.868 13.3867 26.0406 12.1986 26.2201 11.0114C26.2374 10.9076 26.2534 10.8034 26.2694 10.6993C26.3145 10.406 26.3597 10.1124 26.4331 9.82459C26.4924 9.60151 26.586 9.36985 26.7782 9.22828C27.04 9.029 27.3777 8.98101 27.6948 8.93593L27.6986 8.93538ZM23.2822 9.0133C23.2246 9.01305 23.1668 9.01279 23.1114 9.02899C23.0186 9.06136 22.964 9.15496 22.9574 9.24934C22.8439 10.0648 22.7297 10.8802 22.6155 11.6957L22.6153 11.6969C22.4434 12.9242 22.2715 14.1515 22.1021 15.379C22.0752 15.4859 22.175 15.5881 22.2819 15.5733C22.8813 15.5744 23.4807 15.5748 24.0802 15.5733C24.2276 15.5818 24.3466 15.4492 24.3497 15.3069C24.4713 14.4391 24.5936 13.5714 24.7159 12.7036L24.716 12.7028C24.8761 11.5667 25.0363 10.4306 25.1948 9.29419C25.2248 9.16003 25.1164 9.01533 24.9772 9.0165C24.6763 9.01264 24.3754 9.01327 24.0745 9.0139H24.0744C23.8289 9.01441 23.5835 9.01492 23.338 9.01299C23.3195 9.01347 23.3008 9.01339 23.2822 9.0133ZM38.0361 9.21151C38.1114 9.11752 38.2284 9.06175 38.3493 9.06682C38.5547 9.06694 38.7603 9.0666 38.9658 9.06625H38.9658H38.9658H38.9659H38.9659H38.9659H38.966H38.966H38.966H38.9661H38.9661H38.9661H38.9662H38.9662H38.9662C39.4116 9.06551 39.8571 9.06476 40.3024 9.06877C40.4471 9.06448 40.5099 9.26494 40.4015 9.35386C39.8178 10.0013 39.233 10.6476 38.6481 11.294L38.6467 11.2956L38.1293 11.8674L38.7148 13.1218L38.7166 13.1258L38.7186 13.1301L38.7193 13.1315L38.7199 13.1328L38.7211 13.1354L38.7213 13.1359L38.7222 13.1377C39.2187 14.2013 39.7152 15.265 40.2104 16.3295C40.3067 16.4866 40.1756 16.7109 39.9908 16.6984C39.4046 16.7008 38.818 16.7004 38.2319 16.6988C38.1184 16.7074 38.024 16.6259 37.9858 16.5245C37.5963 15.6775 37.2061 14.8307 36.8159 13.9839L36.8149 13.9815C36.4807 13.2562 36.1465 12.5309 35.8127 11.8054C36.2141 11.3378 36.615 10.8698 37.0159 10.4018L37.0193 10.3979L37.0194 10.3977L37.0196 10.3975C37.3584 10.0021 37.6971 9.60666 38.0361 9.21151ZM27.1468 16.0143C26.9229 15.8798 26.6484 15.863 26.3964 15.9106C25.7256 16.0257 25.2338 16.6688 25.1936 17.3306C25.1843 17.5927 25.2872 17.8575 25.4768 18.0392C25.7006 18.2596 26.0306 18.3548 26.3395 18.3111C27.015 18.2264 27.5727 17.6149 27.6214 16.9402C27.6483 16.5763 27.4678 16.1969 27.1468 16.0143ZM20.013 16.6084C19.8513 16.6072 19.6879 16.606 19.5316 16.6532C19.2305 16.7394 18.9809 16.9699 18.8596 17.2577C18.4329 18.2033 18.0061 19.1488 17.5792 20.0943L17.5778 20.0974L17.5764 20.1005L17.5751 20.1036L17.5737 20.1067L17.5723 20.1098L17.5709 20.1129C16.8081 21.8025 16.0453 23.4922 15.2836 25.1822C15.2095 25.3019 15.3187 25.4641 15.4568 25.4435C16.0695 25.4423 16.6822 25.438 17.2949 25.4329C17.4228 25.4372 17.5484 25.3612 17.5979 25.2422C17.703 25.0014 17.8057 24.7595 17.9084 24.5176L17.9085 24.5173L17.9085 24.5172L17.9086 24.5171L17.9086 24.517L17.9087 24.5169L17.9087 24.5168C18.0113 24.2752 18.1138 24.0336 18.2188 23.793C18.2391 23.7181 18.3206 23.7107 18.3857 23.7142C18.6978 23.715 19.0099 23.7148 19.322 23.7146H19.323C19.7389 23.7142 20.1548 23.7139 20.5705 23.7161C20.6333 23.7087 20.693 23.7563 20.6938 23.8207C20.72 24.0601 20.7429 24.2999 20.7658 24.5396C20.7864 24.7564 20.8071 24.9731 20.8303 25.1896C20.8408 25.351 20.991 25.4825 21.152 25.4743C21.3257 25.4743 21.4993 25.4745 21.673 25.4748H21.673L21.6769 25.4748C22.1144 25.4754 22.552 25.4761 22.9893 25.4727C23.1411 25.4743 23.2577 25.3128 23.2179 25.1681C22.9336 23.4652 22.6479 21.7622 22.3621 20.0592L22.36 20.0466C22.2019 19.1045 22.0438 18.1623 21.886 17.2202C21.8361 16.8852 21.5292 16.6142 21.1895 16.6103C20.9714 16.6075 20.7531 16.608 20.5347 16.6086H20.5347H20.5347H20.5347H20.5347H20.5346H20.5346H20.5342C20.3888 16.609 20.2433 16.6093 20.0979 16.6087C20.0699 16.6088 20.0418 16.6086 20.0137 16.6084H20.0136H20.0135H20.0134H20.0133H20.0131H20.013ZM19.5193 20.6347L19.5194 20.6345C19.7163 20.1331 19.9132 19.6316 20.1189 19.134C20.1606 19.0958 20.2176 19.1445 20.2059 19.1948L20.2323 19.4816C20.3016 20.2332 20.3709 20.985 20.4356 21.7369C20.4524 21.8172 20.3771 21.8843 20.2999 21.8757C20.1701 21.8753 20.0402 21.8759 19.9103 21.8765H19.9102H19.9102H19.9101H19.9101H19.9101H19.91C19.6394 21.8778 19.3687 21.8791 19.0987 21.8714C19.0393 21.8457 19.0631 21.7867 19.0827 21.7383L19.0827 21.7382C19.0872 21.7272 19.0914 21.7167 19.0944 21.7072C19.2381 21.3507 19.3787 20.9927 19.5193 20.6347ZM36.2655 17.6794C36.1721 17.6783 36.0784 17.6771 35.9878 17.6999C35.8727 17.7276 35.7842 17.831 35.7819 17.9507C35.6719 19.0777 35.5637 20.2051 35.4555 21.3324C35.4013 21.8966 35.3472 22.4609 35.2928 23.0251C35.2635 23.1538 35.3673 23.293 35.5026 23.2868C35.8156 23.2894 36.1289 23.2887 36.4422 23.2881L36.7553 23.2875C36.8672 23.2977 36.9722 23.2115 36.9854 23.0999C37.3162 21.4707 37.6455 19.8407 37.9748 18.211L38.0201 17.987C38.0509 17.8739 38.0275 17.7011 37.8844 17.6859C37.5796 17.6772 37.2744 17.6786 36.9691 17.6799H36.9691H36.9691H36.969H36.969C36.7669 17.6808 36.5647 17.6817 36.3626 17.6797C36.3304 17.6803 36.2979 17.6799 36.2655 17.6794ZM33.7141 18.9893C32.8919 18.765 32.0359 18.6601 31.1841 18.7054C30.4283 18.7335 29.6444 18.8965 29.0278 19.3582C28.4217 19.7989 28.0372 20.483 27.8371 21.1944C27.6495 21.8683 27.5742 22.5742 27.6007 23.2731C27.63 23.8846 27.7934 24.5379 28.2575 24.9684C28.7466 25.4251 29.4361 25.5577 30.0808 25.6143C31.1385 25.7137 32.2184 25.5616 33.2051 25.1685C33.3377 25.1209 33.4691 25.0457 33.5382 24.9174C33.5997 24.8043 33.6124 24.6765 33.6251 24.5493L33.6251 24.5493C33.6307 24.4936 33.6362 24.438 33.6458 24.3838C33.7499 23.5633 33.8536 22.7427 33.9574 21.9221L33.9594 21.9067L33.9612 21.8924C34.065 21.0715 34.1688 20.2505 34.2729 19.4296C34.2866 19.3306 34.2893 19.2073 34.1965 19.1449C34.0978 19.0821 33.9841 19.0558 33.8708 19.0296C33.8179 19.0174 33.7652 19.0052 33.7141 18.9893ZM30.004 21.8855C30.0734 21.5563 30.1795 21.2217 30.4045 20.9635C30.6291 20.6952 30.9833 20.5318 31.335 20.5653C31.5367 20.5832 31.736 20.623 31.9337 20.6679L31.7479 22.1152L31.562 23.5625C31.2364 23.6557 30.89 23.7243 30.5523 23.6631C30.266 23.6163 30.0461 23.3761 29.9673 23.105C29.8491 22.7064 29.9185 22.2833 30.004 21.8855ZM26.1502 18.8213C25.8283 18.8195 25.5064 18.8177 25.1855 18.8302C25.0595 18.8575 24.971 18.9756 24.9612 19.1012C24.8956 19.574 24.8309 20.047 24.7663 20.5199L24.7663 20.5201L24.7663 20.5202L24.7662 20.5205L24.7662 20.5205C24.6022 21.7205 24.4381 22.9205 24.2588 24.1182C24.2489 24.1793 24.2395 24.2408 24.2301 24.3025L24.2301 24.3026L24.2301 24.3027C24.1754 24.6624 24.1198 25.0272 23.9464 25.351C23.7924 25.649 23.54 25.8885 23.2479 26.0503C23.0491 26.169 22.8349 26.2558 22.621 26.3425L22.6206 26.3426C22.5619 26.3664 22.5032 26.3902 22.4449 26.4146C22.3482 26.4446 22.2881 26.5495 22.3345 26.6459C22.4749 27.0858 22.6184 27.5245 22.7624 27.9633L22.7712 27.9868C22.8089 28.087 22.8588 28.22 22.9866 28.207C23.3692 28.1415 23.7397 28.0148 24.0993 27.8705C24.6745 27.6267 25.2358 27.2859 25.6028 26.7675C25.9319 26.2871 26.1269 25.7293 26.2685 25.1685C26.4298 24.5279 26.5122 23.8729 26.5945 23.2184C26.6242 22.9821 26.6539 22.7458 26.6874 22.5103C26.805 21.6761 26.914 20.8406 27.023 20.0051L27.0231 20.0045L27.0232 20.0039C27.0613 19.7121 27.0994 19.4203 27.1378 19.1285C27.1511 19.0447 27.1558 18.9468 27.0875 18.884C27.03 18.8194 26.9431 18.8201 26.8619 18.8207H26.8618H26.8618C26.844 18.8209 26.8264 18.821 26.8094 18.8204C26.5898 18.8237 26.37 18.8225 26.1502 18.8213ZM35.7561 23.9821C36.0506 23.9135 36.3758 23.9193 36.6453 24.0687C36.9858 24.2473 37.2069 24.6288 37.1855 25.0137C37.1562 25.5683 36.7541 26.0663 36.2389 26.2551C35.8716 26.3959 35.4336 26.3775 35.1021 26.1556C34.8369 25.9844 34.6548 25.6825 34.6532 25.3635C34.6614 24.7286 35.1286 24.1186 35.7561 23.9821ZM38.6995 28.7733C35.4983 28.7113 32.2944 28.8466 29.1062 29.1333C25.6203 29.4582 22.1442 29.8977 18.6962 30.5069C17.0277 30.8072 15.362 31.1332 13.7197 31.556C13.9943 31.7062 14.2684 31.8573 14.5425 32.0085C14.8364 32.1706 15.1304 32.3327 15.4248 32.4936C15.7598 32.6773 16.1627 32.7264 16.5332 32.6359C16.779 32.576 17.0247 32.5154 17.2703 32.4547C17.7445 32.3376 18.2186 32.2205 18.6938 32.109C21.7815 31.3739 24.9109 30.8298 28.0504 30.372C30.8865 29.9593 33.7359 29.6395 36.5927 29.4133C38.9027 29.2324 41.2177 29.1076 43.5348 29.0771C43.2818 29.0358 43.0267 29.0126 42.7717 28.9894C42.6899 28.9819 42.608 28.9744 42.5262 28.9664C41.2536 28.856 39.9767 28.7995 38.6995 28.7733Z" fill="#FEFEFE" fill-opacity="0.5"/>
</svg>
