<svg width="54" height="38" viewBox="0 0 54 38" fill="none" xmlns="http://www.w3.org/2000/svg">
<rect x="0.200195" width="53.2" height="38" rx="4" fill="#003D79" fill-opacity="0.5"/>
<path fill-rule="evenodd" clip-rule="evenodd" d="M4.04849 20.1223C4.04849 19.4408 4.03649 18.8689 4.00049 18.359H5.24945L5.30801 19.2351H5.34305C5.62613 18.7721 6.14381 18.2246 7.10945 18.2246C7.86317 18.2246 8.45189 18.6635 8.69873 19.3201H8.72297C8.92349 18.9917 9.15821 18.7487 9.42881 18.5777C9.74705 18.3469 10.1122 18.2246 10.5832 18.2246C11.5367 18.2246 12.5016 18.8934 12.5016 20.7911V24.2814H11.0889V21.0104C11.0889 20.0254 10.7597 19.4408 10.0654 19.4408C9.57005 19.4408 9.20465 19.8063 9.05261 20.2322C9.01685 20.3777 8.98157 20.5603 8.98157 20.7294V24.2814H7.56833V20.8517C7.56833 20.0254 7.25093 19.4408 6.57965 19.4408C6.03797 19.4408 5.67341 19.8793 5.54357 20.292C5.48429 20.4389 5.46053 20.6087 5.46053 20.7786V24.2814H4.04849V20.1223Z" fill="white" fill-opacity="0.5"/>
<path fill-rule="evenodd" clip-rule="evenodd" d="M18.006 22.8571C18.006 23.392 18.0295 23.9141 18.0885 24.28H16.7811L16.6872 23.6234H16.6515C16.2984 24.086 15.6979 24.4138 14.9562 24.4138C13.8021 24.4138 13.1548 23.551 13.1548 22.6505C13.1548 21.1541 14.4377 20.4007 16.5573 20.4127V20.3151C16.5573 19.9257 16.404 19.2816 15.3916 19.2816C14.8261 19.2816 14.2372 19.4641 13.8489 19.7191L13.5659 18.747C13.9906 18.4789 14.733 18.2231 15.6389 18.2231C17.4765 18.2231 18.006 19.4279 18.006 20.7165V22.8571ZM16.5929 21.3866C15.5687 21.362 14.5917 21.5931 14.5917 22.4932C14.5917 23.0764 14.9566 23.3445 15.4159 23.3445C15.9922 23.3445 16.4167 22.9552 16.5459 22.5297C16.5809 22.4202 16.5929 22.2981 16.5929 22.2012V21.3866Z" fill="white" fill-opacity="0.5"/>
<path fill-rule="evenodd" clip-rule="evenodd" d="M19.0072 20.1223C19.0072 19.4408 18.9943 18.8689 18.96 18.359H20.2305L20.3016 19.2467H20.3364C20.5839 18.7851 21.2079 18.2246 22.1614 18.2246C23.1626 18.2246 24.1987 18.8934 24.1987 20.7668V24.2814H22.7506V20.9375C22.7506 20.0856 22.4445 19.4408 21.6555 19.4408C21.0786 19.4408 20.6784 19.8666 20.5249 20.3168C20.4786 20.4509 20.4663 20.6337 20.4663 20.8028V24.2814H19.0072V20.1223Z" fill="white" fill-opacity="0.5"/>
<path fill-rule="evenodd" clip-rule="evenodd" d="M30.4775 15.9805V22.6161C30.4775 23.2241 30.5007 23.882 30.5243 24.2829H29.2291L29.1711 23.3466H29.1471C28.8055 24.0036 28.1097 24.4168 27.2746 24.4168C25.9094 24.4168 24.8258 23.213 24.8258 21.3887C24.8138 19.4061 26.0147 18.2261 27.3922 18.2261C28.1809 18.2261 28.7465 18.5671 29.0051 19.0052H29.029V15.9805H30.4775ZM29.0291 20.8293C29.0291 20.7089 29.017 20.5623 28.9943 20.4411C28.8646 19.8573 28.4051 19.3827 27.7457 19.3827C26.8156 19.3827 26.2974 20.2344 26.2974 21.3412C26.2974 22.4233 26.8156 23.214 27.734 23.214C28.3224 23.214 28.8408 22.8006 28.982 22.1562C29.017 22.0218 29.0291 21.876 29.0291 21.7174V20.8293Z" fill="white" fill-opacity="0.5"/>
<path fill-rule="evenodd" clip-rule="evenodd" d="M31.501 24.2834H32.9625V18.3613H31.501V24.2834Z" fill="white" fill-opacity="0.5"/>
<path fill-rule="evenodd" clip-rule="evenodd" d="M33.9864 20.2695C33.9864 19.4672 33.9741 18.8948 33.939 18.3602H35.1991L35.2452 19.4909H35.294C35.5761 18.6517 36.2474 18.3602 36.8594 18.3602C37.0004 18.3602 37.0827 18.3353 37.2008 18.3602V19.6741C37.0827 19.6498 36.9535 19.6255 36.7768 19.6255C36.0823 19.6255 35.6109 20.0872 35.4816 20.7557C35.4586 20.8895 35.4349 21.0483 35.4349 21.2194V24.283H33.9864V20.2695Z" fill="white" fill-opacity="0.5"/>
<path fill-rule="evenodd" clip-rule="evenodd" d="M37.8716 24.2834H39.3309V18.3613H37.8716V24.2834Z" fill="white" fill-opacity="0.5"/>
<path fill-rule="evenodd" clip-rule="evenodd" d="M37.5265 11.1996C36.6499 11.7239 34.5823 12.9488 33.8105 13.405V13.405C33.3401 13.6525 32.2506 13.7606 31.6344 12.9023V12.9023C31.6233 12.8868 30.8148 11.8433 30.7818 11.804V11.804C30.7586 11.7762 30.2359 10.9754 29.0712 10.9504V10.9504C28.8991 10.9462 28.0435 10.9414 27.2087 11.4315V11.4315C26.099 12.0864 23.5183 13.6103 23.5183 13.6103V13.6103C23.5176 13.6103 23.5176 13.6117 23.5163 13.6117V13.6117C22.4555 14.2386 21.6289 14.7268 21.6289 14.7268V14.7268L22.6055 15.9656C23.0623 16.5516 24.0925 17.0048 24.9859 16.4751V16.4751C24.9859 16.4751 28.287 14.5005 28.2991 14.4948V14.4948C29.7267 13.6861 30.8283 13.6861 31.5595 13.987V13.987C32.2158 14.2735 32.7867 14.9872 32.7867 14.9872V14.9872C32.7867 14.9872 33.5329 15.9423 33.6645 16.1094V16.1094C34.0891 16.6492 34.7918 16.4371 34.7918 16.4371V16.4371C34.7918 16.4371 35.0522 16.4067 35.4447 16.1659V16.1659C35.4447 16.1659 38.6423 14.2509 38.6443 14.2503V14.2503C39.6596 13.635 40.5908 13.5201 41.0667 13.5653V13.5653C42.5574 13.7053 43.0205 14.7809 43.6668 15.5313V15.5313C44.0474 15.9727 44.3909 16.2233 44.9161 16.2107V16.2107C45.2612 16.2031 45.6511 15.987 45.7086 15.9479V15.9479L49.5375 13.6655C49.5375 13.6655 49.1447 13.0543 48.3401 12.1034V12.1034C47.6199 11.2549 46.8551 11.6388 46.2452 11.9508V11.9508C45.989 12.0817 45.0607 12.7195 44.141 13.1645V13.1645C43.4857 13.4814 42.5444 13.3861 42.0285 12.7277V12.7277C41.9977 12.6877 41.1631 11.644 41.0754 11.5156V11.5156C40.7385 11.0798 40.0813 10.6895 39.239 10.6895V10.6895C38.7269 10.6895 38.1457 10.8337 37.5265 11.1996" fill="url(#paint0_linear_4027_4681)" fill-opacity="0.5"/>
<defs>
<linearGradient id="paint0_linear_4027_4681" x1="21.6289" y1="16.7097" x2="49.5375" y2="16.7097" gradientUnits="userSpaceOnUse">
<stop stop-color="#FFCA06"/>
<stop offset="0.330844" stop-color="#FBAA18"/>
<stop offset="0.694742" stop-color="#FFC907"/>
<stop offset="1" stop-color="#FAA619"/>
</linearGradient>
</defs>
</svg>
