<svg width="54" height="38" viewBox="0 0 54 38" fill="none" xmlns="http://www.w3.org/2000/svg">
<rect x="0.200195" width="53.2" height="38" rx="4" fill="#4C3494" fill-opacity="0.5"/>
<path fill-rule="evenodd" clip-rule="evenodd" d="M43.661 14.4096C42.4112 13.3059 40.6926 12.7901 39.0396 12.9477C38.6266 12.9854 38.2168 13.0589 37.8191 13.1766C36.3624 13.5957 35.0847 14.5938 34.3219 15.9026C33.2963 17.6287 33.1735 19.844 33.9652 21.6845C34.5531 23.071 35.6768 24.2217 37.0545 24.8319C38.6191 25.525 40.4708 25.5459 42.0494 24.885C42.854 24.5464 43.5838 24.0291 44.1689 23.3812C45.2373 22.2143 45.8056 20.6217 45.7694 19.045C45.7601 17.2961 44.9926 15.5529 43.661 14.4096ZM36.5038 16.5989C37.0912 15.7231 38.0601 15.1124 39.1089 14.9822C39.9405 14.8691 40.8126 15.0347 41.5331 15.4705C42.2252 15.8812 42.7661 16.5254 43.0894 17.2598C43.728 18.725 43.5847 20.5408 42.6205 21.8329C42.1633 22.445 41.5215 22.9222 40.7926 23.1575C39.8773 23.4557 38.8466 23.3915 37.9796 22.9715C37.2959 22.6426 36.7242 22.0975 36.3452 21.4417C35.4977 19.9691 35.5466 18.0091 36.5038 16.5989ZM16.801 13.5929C15.6731 13.0082 14.3605 12.8129 13.1056 12.9794C11.8959 13.1352 10.7331 13.6598 9.83076 14.4831C8.90517 15.311 8.25541 16.4343 7.97448 17.6422C7.63541 19.0761 7.79169 20.6291 8.44052 21.9552C9.03634 23.1938 10.0717 24.2157 11.3196 24.7929C12.5554 25.3677 13.9801 25.5054 15.3103 25.2259C16.5884 24.9598 17.7689 24.2584 18.6196 23.2687C19.4308 22.3338 19.9359 21.1464 20.0777 19.9189C20.2149 18.7743 20.0452 17.5924 19.5787 16.537C19.0256 15.277 18.0298 14.2143 16.801 13.5929ZM11.7838 15.6431C12.2815 15.2836 12.8717 15.0575 13.4796 14.9794C14.2075 14.8854 14.9652 15.0008 15.6233 15.3296C16.3982 15.7077 17.0201 16.3696 17.3861 17.1473C17.8019 18.0143 17.9149 19.0138 17.7582 19.9589C17.6135 20.8212 17.2196 21.6533 16.5898 22.2673C16.0484 22.8138 15.3284 23.178 14.5689 23.2957C13.6387 23.4422 12.6512 23.2408 11.8717 22.7068C11.0666 22.1696 10.5015 21.3124 10.2573 20.3817C10.0163 19.4626 10.0466 18.4691 10.3615 17.5715C10.6294 16.8068 11.1215 16.1147 11.7838 15.6431ZM20.639 13.257L20.6387 13.257C20.6384 13.7011 20.6385 14.1453 20.6386 14.5896C20.6386 14.8117 20.6387 15.0339 20.6387 15.2561C20.9401 15.2568 21.2412 15.2567 21.5425 15.2566C21.6429 15.2566 21.7433 15.2566 21.8438 15.2566C22.5891 16.9712 23.3335 18.6862 24.0779 20.4012C24.6183 21.6464 25.1588 22.8916 25.6996 24.1366C25.9512 24.7143 26.4801 25.165 27.0954 25.3077C27.3193 25.3663 27.5502 25.3639 27.7803 25.3616C27.8519 25.3609 27.9233 25.3601 27.9945 25.3612C28.7007 23.6978 29.4092 22.0354 30.1177 20.373C30.9621 18.3916 31.8066 16.4102 32.647 14.4273C32.6685 14.186 32.6652 13.9424 32.6619 13.6988C32.6599 13.5512 32.6579 13.4036 32.6615 13.2566H28.7554V13.257C28.7549 13.9239 28.7545 14.5902 28.7554 15.2566C28.9254 15.2568 29.0955 15.2567 29.2655 15.2567C29.4922 15.2566 29.7189 15.2565 29.9456 15.257C29.6348 16.0187 29.3246 16.7806 29.0145 17.5426C28.4129 19.0206 27.8113 20.4987 27.2042 21.9743C26.7315 20.8547 26.2588 19.7352 25.7861 18.6157C25.3134 17.4961 24.8408 16.3766 24.368 15.257C24.568 15.2564 24.7681 15.2565 24.9682 15.2566C25.1684 15.2567 25.3687 15.2568 25.5689 15.2561V13.257C23.9258 13.2561 22.2826 13.2566 20.639 13.257Z" fill="white" fill-opacity="0.5"/>
</svg>
