<svg width="26" height="26" viewBox="0 0 26 26" fill="none" xmlns="http://www.w3.org/2000/svg">
<path d="M18.108 0.396355C18.4679 0.531524 18.7769 0.775404 18.9919 1.09414C19.207 1.41288 19.3175 1.79065 19.3081 2.17504L19.1627 10.1403L25.1793 15.362C25.4666 15.6149 25.6695 15.9497 25.7609 16.3214C25.8524 16.6931 25.8278 17.0838 25.6907 17.4412C25.5535 17.7985 25.3103 18.1053 24.9936 18.3203C24.677 18.5354 24.3021 18.6484 23.9194 18.6441L15.9542 18.4987L10.7324 24.5153C10.4795 24.8026 10.1447 25.0056 9.77303 25.097C9.40135 25.1884 9.0106 25.1639 8.65327 25.0267C8.29594 24.8895 7.98914 24.6463 7.7741 24.3297C7.55906 24.013 7.44608 23.6382 7.45032 23.2554L7.59571 15.2902L1.57911 10.0685C1.29185 9.81554 1.08887 9.48075 0.997455 9.10907C0.906039 8.73739 0.930561 8.34664 1.06773 7.98931C1.20489 7.63198 1.44813 7.32518 1.76477 7.11014C2.08141 6.8951 2.45627 6.78212 2.839 6.78637L10.8042 6.93175L16.026 0.915152C16.2762 0.623203 16.6111 0.416392 16.9842 0.323425C17.3572 0.230458 17.75 0.255946 18.108 0.396355Z" fill="#CEA02F"/>
</svg>
