<svg width="32" height="32" viewBox="0 0 32 32" fill="none" xmlns="http://www.w3.org/2000/svg">
<path d="M28.9838 6.33338L18.5246 8.18623L10.393 1.35201C10 1.02646 9.51678 0.828988 9.00824 0.786125C8.4997 0.743261 7.99023 0.857059 7.54827 1.11223C7.1063 1.3674 6.75301 1.75171 6.53586 2.21355C6.31872 2.67539 6.24811 3.19262 6.33354 3.69576L8.18638 14.155L1.35216 22.2865C1.02661 22.6795 0.829142 23.1628 0.786278 23.6713C0.743416 24.1798 0.857212 24.6893 1.11238 25.1313C1.36755 25.5732 1.75187 25.9265 2.2137 26.1437C2.67554 26.3608 3.19277 26.4314 3.69591 26.346L14.1551 24.4932L22.2867 31.3274C22.6797 31.6529 23.1629 31.8504 23.6715 31.8933C24.18 31.9361 24.6895 31.8223 25.1314 31.5672C25.5734 31.312 25.9267 30.9277 26.1438 30.4658C26.361 30.004 26.4316 29.4868 26.3462 28.9836L24.4933 18.5244L31.3275 10.3929C31.6531 9.99986 31.8506 9.51662 31.8934 9.00809C31.9363 8.49955 31.8225 7.99008 31.5673 7.54811C31.3121 7.10614 30.9278 6.75286 30.466 6.53571C30.0042 6.31856 29.4869 6.24796 28.9838 6.33338ZM22.5907 16.9165C22.3517 17.1952 22.1783 17.524 22.0833 17.8786C21.9882 18.2333 21.974 18.6047 22.0417 18.9656L23.8867 29.4113L15.763 22.5906C15.4843 22.3516 15.1555 22.1781 14.8009 22.0831C14.4463 21.9881 14.0748 21.9739 13.714 22.0415L3.26828 23.8866L10.089 15.7629C10.328 15.4842 10.5014 15.1554 10.5964 14.8007C10.6914 14.4461 10.7057 14.0747 10.638 13.7138L8.79297 3.26812L16.9167 10.0888C17.1954 10.3278 17.5242 10.5012 17.8788 10.5963C18.2334 10.6913 18.6049 10.7055 18.9657 10.6378L29.4114 8.79282L22.5907 16.9165Z" fill="#CEA02F"/>
</svg>
